{"glyphs":{"0":{"ha":699,"x_min":51,"x_max":648,"o":"m 350 929 q 166 812 233 929 q 100 489 100 696 q 166 166 100 283 q 350 50 233 50 q 533 166 467 50 q 599 489 599 283 q 533 812 599 696 q 350 929 467 929 m 350 0 q 130 130 210 0 q 51 489 51 260 q 130 849 51 719 q 350 979 210 979 q 569 849 490 979 q 648 489 648 719 q 569 130 648 260 q 350 0 490 0 z "},"1":{"ha":256,"x_min":51,"x_max":205,"o":"m 169 980 l 51 862 l 85 827 l 155 897 l 155 0 l 205 0 l 205 977 l 169 980 z "},"2":{"ha":597,"x_min":51,"x_max":547,"o":"m 118 50 l 468 524 l 469 526 q 516 707 516 596 q 453 907 516 833 q 283 981 391 981 q 117 911 180 981 q 51 724 55 843 l 100 720 q 151 876 103 821 q 283 931 199 931 q 418 873 370 931 q 467 707 467 814 q 428 553 467 612 l 56 50 l 56 0 l 543 0 l 547 50 l 118 50 z "},"3":{"ha":625,"x_min":51,"x_max":574,"o":"m 313 0 q 125 71 195 0 q 51 262 55 141 l 100 258 q 160 104 105 159 q 313 50 216 50 q 469 109 414 50 q 525 276 525 168 q 469 444 525 385 q 313 503 414 503 l 241 503 l 244 553 l 313 553 q 444 602 397 553 q 490 742 490 652 q 444 882 490 832 q 313 931 397 931 q 186 887 231 931 q 136 761 140 843 l 86 757 q 151 920 90 861 q 313 981 212 981 q 478 916 417 981 q 539 742 539 852 q 447 541 539 603 l 431 530 l 448 521 q 574 276 574 454 q 504 74 574 149 q 313 0 433 0 z "},"4":{"ha":624,"x_min":51,"x_max":573,"o":"m 364 983 l 51 330 l 83 293 l 377 293 l 377 0 l 426 0 l 426 293 l 573 293 l 573 342 l 426 342 l 426 543 l 377 547 l 377 342 l 111 342 l 395 933 l 445 933 l 449 983 l 364 983 z "},"5":{"ha":604,"x_min":51,"x_max":553,"o":"m 302 0 q 122 77 189 0 q 51 288 55 155 l 100 284 q 157 111 104 172 q 302 50 210 50 q 450 116 397 50 q 503 304 503 182 q 451 491 503 424 q 303 558 399 557 l 89 558 l 121 979 l 543 979 l 540 929 l 167 929 l 142 607 l 303 607 q 486 525 418 606 q 553 304 553 444 q 485 81 553 163 q 302 0 418 0 z "},"6":{"ha":555,"x_min":51,"x_max":504,"o":"m 277 558 q 129 459 173 558 q 105 376 113 423 q 100 304 100 341 q 105 232 100 267 q 129 148 113 184 q 277 50 173 50 q 426 148 382 50 q 449 232 442 184 q 454 304 454 267 q 449 376 454 341 q 426 459 442 423 q 277 558 382 558 m 277 0 q 112 81 172 0 q 51 304 51 163 l 52 328 l 52 339 l 51 339 q 173 799 54 630 q 496 978 291 965 l 493 928 q 214 770 316 915 q 127 574 157 690 l 119 540 l 146 562 q 277 607 200 607 q 443 526 382 607 q 504 304 504 444 q 443 81 504 163 q 277 0 382 0 z "},"7":{"ha":605,"x_min":51,"x_max":554,"o":"m 69 977 l 65 928 l 507 928 l 51 -33 l 96 -54 l 554 913 l 549 977 l 69 977 z "},"8":{"ha":625,"x_min":51,"x_max":574,"o":"m 313 931 q 182 882 228 931 q 136 742 136 832 q 182 602 136 652 q 313 553 228 553 q 444 602 397 553 q 490 742 490 652 q 444 882 490 832 q 313 931 397 931 m 313 503 q 156 444 212 503 q 100 276 100 385 q 156 109 100 168 q 313 50 212 50 q 469 109 414 50 q 525 276 525 168 q 469 444 525 385 q 313 503 414 503 m 313 0 q 121 74 191 0 q 51 276 51 149 q 177 521 51 454 l 193 530 l 178 541 q 86 742 86 603 q 147 916 86 852 q 313 981 208 981 q 478 916 417 981 q 539 742 539 852 q 447 541 539 603 l 432 530 l 448 521 q 574 276 574 454 q 504 74 574 149 q 313 0 434 0 z "},"9":{"ha":555,"x_min":51,"x_max":504,"o":"m 277 928 q 129 830 173 928 q 105 746 113 793 q 100 674 100 711 q 105 602 100 637 q 129 518 113 555 q 277 420 173 420 q 426 518 382 420 q 449 602 442 555 q 454 674 454 637 q 449 746 454 711 q 426 830 442 793 q 277 928 382 928 m 62 50 q 341 208 239 63 q 427 404 398 288 l 435 437 l 409 416 q 277 370 355 370 q 112 452 172 370 q 51 674 51 534 q 112 896 51 814 q 277 978 172 978 q 443 896 382 978 q 504 674 504 814 l 503 650 l 503 638 l 504 638 q 382 179 501 348 q 58 0 264 12 l 62 50 z "},"\u0000":{"ha":0,"x_min":0,"x_max":0,"o":""}," ":{"ha":345,"x_min":0,"x_max":0,"o":""},"!":{"ha":204,"x_min":51,"x_max":153,"o":"m 81 208 l 138 203 l 153 998 l 51 1004 l 81 208 m 110 0 q 84 11 95 0 q 73 37 73 22 q 84 62 73 52 q 110 73 95 73 q 136 62 125 73 q 146 37 146 52 q 136 11 146 22 q 110 0 125 0 z "},"\"":{"ha":330,"x_min":51,"x_max":279,"o":"m 51 769 l 124 769 l 144 1024 l 71 1024 l 51 769 m 279 1024 l 205 1024 l 184 769 l 258 769 l 279 1024 z "},"#":{"ha":802,"x_min":51,"x_max":751,"o":"m 511 711 l 332 711 l 364 951 l 292 958 l 258 711 l 101 711 l 85 637 l 248 637 l 224 458 l 66 458 l 51 385 l 214 385 l 182 144 l 254 138 l 288 385 l 467 385 l 434 144 l 507 138 l 541 385 l 701 385 l 717 458 l 550 458 l 574 637 l 735 637 l 751 711 l 584 711 l 616 951 l 544 958 l 511 711 m 321 637 l 501 637 l 477 458 l 298 458 l 321 637 z "},"$":{"ha":650,"x_min":51,"x_max":600,"o":"m 451 483 q 526 348 526 442 q 451 212 526 254 l 451 483 m 378 581 q 325 585 352 585 q 288 587 306 585 l 288 874 q 325 877 306 877 q 378 872 353 877 l 378 581 m 378 189 q 325 184 352 184 q 288 186 307 184 l 288 513 q 325 511 307 511 q 378 507 352 511 l 378 189 m 214 608 q 145 730 145 644 q 214 854 145 817 l 214 608 m 451 844 q 505 731 505 808 l 578 737 q 451 927 575 876 l 451 1019 l 378 1025 l 378 947 q 325 950 353 950 q 288 948 307 950 l 288 1017 l 214 1023 l 214 933 q 109 857 146 909 q 71 730 71 805 q 109 604 71 656 q 214 528 146 551 l 214 205 q 124 340 127 243 l 51 346 q 94 207 52 264 q 214 126 137 151 l 214 6 l 288 0 l 288 113 q 325 111 307 111 q 378 114 352 111 l 378 8 l 451 2 l 451 132 q 560 213 522 157 q 600 348 600 269 q 560 482 600 426 q 451 564 522 538 l 451 844 z "},"%":{"ha":702,"x_min":51,"x_max":651,"o":"m 137 12 l 189 8 l 566 804 l 514 808 l 137 12 m 181 761 q 106 647 106 761 q 126 563 106 593 q 181 534 145 534 q 236 563 216 534 q 256 647 256 593 q 181 761 256 761 m 181 478 q 86 524 121 478 q 51 647 51 569 q 86 771 51 725 q 181 817 121 817 q 276 771 241 817 q 311 647 311 725 q 276 524 311 569 q 181 478 241 478 m 522 283 q 466 253 486 283 q 447 169 447 223 q 466 85 447 115 q 522 56 486 56 q 576 85 557 56 q 595 169 595 115 q 576 253 595 223 q 522 283 557 283 m 522 0 q 426 45 461 0 q 391 169 391 91 q 426 293 391 248 q 522 338 461 338 q 616 293 581 338 q 651 169 651 248 q 616 45 651 91 q 522 0 581 0 z "},"&":{"ha":677,"x_min":51,"x_max":626,"o":"m 334 0 q 127 83 203 0 q 51 311 51 167 q 127 537 51 454 q 334 621 203 621 q 443 665 404 621 q 481 787 481 708 q 443 910 481 867 q 334 954 404 954 q 189 821 205 954 l 132 817 q 193 958 140 907 q 334 1009 246 1009 q 482 949 428 1009 q 537 787 537 890 q 482 625 537 684 q 334 565 428 565 q 166 498 225 565 q 106 311 106 432 q 166 122 106 189 q 334 56 225 56 q 494 115 435 56 q 560 283 553 175 l 616 288 q 561 108 611 180 l 555 100 l 626 48 l 590 7 l 520 58 l 509 58 l 509 54 q 334 0 438 0 z "},"'":{"ha":195,"x_min":51,"x_max":144,"o":"m 51 769 l 124 769 l 144 1024 l 71 1024 l 51 769 z "},"(":{"ha":296,"x_min":51,"x_max":245,"o":"m 174 1024 q 51 512 51 783 q 174 0 51 241 l 176 0 l 245 3 q 124 512 124 243 q 245 1021 124 781 l 176 1024 l 174 1024 z "},")":{"ha":296,"x_min":51,"x_max":245,"o":"m 120 1024 l 51 1021 q 172 512 172 781 q 51 3 172 243 l 120 0 l 123 0 q 245 512 245 241 q 123 1024 245 783 l 120 1024 z "},"*":{"ha":349,"x_min":51,"x_max":298,"o":"m 117 1087 l 65 1036 l 123 968 l 51 907 l 102 855 l 170 912 l 231 841 l 283 892 l 226 960 l 298 1021 l 245 1073 l 178 1015 l 117 1087 z "},"+":{"ha":357,"x_min":51,"x_max":306,"o":"m 132 661 l 139 567 l 51 560 l 51 487 l 145 494 l 152 406 l 225 406 l 218 500 l 306 507 l 306 581 l 212 573 l 205 661 l 132 661 z "},",":{"ha":164,"x_min":51,"x_max":113,"o":"m 58 45 l 51 -41 l 106 -41 l 113 45 l 58 45 z "},"-":{"ha":357,"x_min":51,"x_max":306,"o":"m 51 572 l 51 499 l 306 520 l 306 593 l 51 572 z "},".":{"ha":175,"x_min":51,"x_max":124,"o":"m 87 -7 q 62 4 73 -7 q 51 30 51 15 q 62 56 51 45 q 87 66 73 66 q 113 56 102 66 q 124 30 124 45 q 113 4 124 15 q 87 -7 102 -7 z "},"/":{"ha":414,"x_min":51,"x_max":363,"o":"m 294 981 l 51 0 l 121 0 l 363 975 l 296 981 l 294 981 z "},":":{"ha":193,"x_min":51,"x_max":142,"o":"m 96 700 q 64 686 77 700 q 51 654 51 673 q 64 623 51 635 q 96 609 77 609 q 128 623 115 609 q 142 654 142 635 q 128 686 142 673 q 96 700 115 700 m 96 452 q 64 439 77 452 q 51 406 51 425 q 64 374 51 387 q 96 361 77 361 q 128 374 115 361 q 142 406 142 387 q 128 439 142 425 q 96 452 115 452 z "},";":{"ha":193,"x_min":51,"x_max":142,"o":"m 56 348 l 129 348 l 137 452 l 64 452 l 56 348 m 96 700 q 64 686 77 700 q 51 654 51 673 q 64 623 51 635 q 96 609 77 609 q 128 623 115 609 q 142 654 142 635 q 128 686 142 673 q 96 700 115 700 z "},"<":{"ha":322,"x_min":51,"x_max":271,"o":"m 256 588 l 52 530 l 51 457 l 271 393 l 266 467 l 178 493 l 262 517 l 256 588 z "},"=":{"ha":357,"x_min":51,"x_max":306,"o":"m 51 534 l 306 554 l 306 627 l 51 607 l 51 534 m 51 399 l 306 420 l 306 493 l 51 473 l 51 399 z "},">":{"ha":322,"x_min":51,"x_max":271,"o":"m 60 517 l 144 493 l 56 467 l 51 393 l 271 457 l 271 530 l 65 588 l 60 517 z "},"?":{"ha":589,"x_min":51,"x_max":538,"o":"m 267 209 l 267 565 l 294 565 q 435 614 386 565 q 484 757 484 664 q 435 899 484 850 q 294 949 386 949 q 158 903 207 949 q 106 769 109 856 l 51 773 q 121 943 56 880 q 294 1004 186 1004 q 473 938 408 1004 q 538 757 538 871 q 484 587 538 652 q 330 511 428 522 l 322 510 l 322 204 l 267 209 m 294 0 q 269 11 279 0 q 258 37 258 22 q 269 62 258 52 q 294 73 279 73 q 320 62 310 73 q 331 37 331 52 q 320 11 331 22 q 294 0 310 0 z "},"@":{"ha":863,"x_min":51,"x_max":812,"o":"m 543 512 q 539 465 543 488 q 524 410 534 433 q 431 345 496 345 q 338 410 366 345 q 324 465 328 433 q 321 512 321 488 q 324 559 321 536 q 338 614 328 591 q 431 680 366 680 q 524 614 496 680 q 539 559 534 591 q 543 512 543 536 m 709 298 q 714 376 714 337 q 644 643 714 543 q 452 751 574 743 q 431 753 442 753 q 297 688 347 753 q 248 512 248 623 q 297 336 248 401 q 431 272 347 272 q 566 336 517 272 q 616 512 616 401 q 614 543 616 526 q 635 452 629 503 q 640 376 640 415 q 635 294 640 334 q 610 199 627 241 q 453 75 563 85 l 442 74 l 431 73 q 207 186 287 73 q 124 512 124 303 q 207 838 124 721 q 431 951 287 951 q 656 838 576 951 q 739 512 739 721 q 709 298 739 393 m 431 1024 q 147 880 249 1024 q 51 512 51 745 q 147 144 51 280 q 431 0 249 0 q 716 144 614 0 q 812 512 812 280 q 716 880 812 745 q 431 1024 614 1024 z "},"A":{"ha":785,"x_min":51,"x_max":734,"o":"m 364 979 l 51 0 l 99 0 l 206 334 l 579 334 l 686 0 l 734 0 l 422 975 l 364 979 m 393 918 l 564 384 l 222 384 l 393 918 z "},"B":{"ha":686,"x_min":51,"x_max":635,"o":"m 100 540 l 317 540 q 494 591 431 540 q 556 735 556 642 q 494 880 556 829 q 317 930 431 930 l 100 930 l 100 540 m 100 50 l 317 50 q 515 107 446 50 q 586 270 586 165 q 515 433 586 375 q 317 490 446 490 l 100 490 l 100 50 m 51 0 l 51 980 l 317 980 q 528 914 450 980 q 606 735 606 848 q 486 528 606 591 l 465 517 l 486 507 q 597 414 558 475 q 635 270 635 352 q 550 73 635 145 q 317 0 465 0 l 51 0 z "},"C":{"ha":790,"x_min":51,"x_max":739,"o":"m 412 0 q 143 136 239 0 q 51 490 51 267 q 143 844 51 714 q 412 980 239 980 q 614 915 530 980 q 739 728 699 850 l 688 724 q 599 863 656 812 q 412 930 524 930 q 183 815 265 930 q 100 490 100 698 q 183 165 100 282 q 412 50 265 50 q 599 117 524 50 q 688 256 656 168 l 739 252 q 614 65 699 130 q 412 0 530 0 z "},"D":{"ha":755,"x_min":51,"x_max":705,"o":"m 100 50 l 343 50 q 572 165 491 50 q 656 490 656 282 q 572 815 656 699 q 343 931 491 931 l 100 931 l 100 50 m 51 0 l 51 980 l 343 980 q 612 844 516 980 q 705 490 705 714 q 612 136 705 267 q 343 0 516 0 l 51 0 z "},"E":{"ha":635,"x_min":51,"x_max":585,"o":"m 51 980 l 51 0 l 576 0 l 576 50 l 100 50 l 100 469 l 544 469 l 548 519 l 100 519 l 100 931 l 581 931 l 585 980 l 51 980 z "},"F":{"ha":635,"x_min":51,"x_max":585,"o":"m 51 979 l 51 0 l 100 0 l 100 469 l 544 469 l 548 518 l 100 518 l 100 930 l 581 930 l 585 979 l 51 979 z "},"G":{"ha":825,"x_min":51,"x_max":774,"o":"m 412 0 q 143 136 239 0 q 51 490 51 267 q 143 844 51 713 q 412 980 239 980 q 615 914 530 980 q 740 724 700 848 l 690 720 q 582 876 653 822 q 412 931 510 931 q 183 815 265 931 q 100 490 100 699 q 183 165 100 282 q 412 50 265 50 q 642 165 559 50 q 724 454 716 271 l 724 465 l 447 465 l 451 515 l 774 515 l 774 490 q 682 136 774 267 q 412 0 585 0 z "},"H":{"ha":722,"x_min":51,"x_max":671,"o":"m 621 979 l 621 519 l 100 519 l 100 974 l 51 978 l 51 0 l 100 0 l 100 469 l 621 469 l 621 0 l 671 0 l 671 975 l 621 979 z "},"I":{"ha":151,"x_min":51,"x_max":100,"o":"m 51 979 l 51 0 l 100 0 l 100 975 l 51 979 z "},"J":{"ha":618,"x_min":51,"x_max":568,"o":"m 309 0 q 125 75 194 0 q 51 281 58 149 l 99 284 q 159 110 104 172 q 309 48 214 48 q 465 116 410 48 q 519 307 519 184 l 519 958 l 568 954 l 568 307 q 498 83 568 165 q 309 0 429 0 z "},"K":{"ha":715,"x_min":51,"x_max":665,"o":"m 542 961 l 99 468 l 99 953 l 51 957 l 51 0 l 99 0 l 99 396 l 235 547 l 606 1 l 665 1 l 268 584 l 602 956 l 542 961 z "},"L":{"ha":526,"x_min":51,"x_max":475,"o":"m 51 979 l 51 0 l 471 0 l 475 50 l 100 50 l 100 975 l 51 979 z "},"M":{"ha":797,"x_min":51,"x_max":746,"o":"m 51 979 l 51 0 l 100 0 l 100 869 l 368 196 l 428 191 l 697 867 l 697 0 l 746 0 l 746 975 l 692 979 l 399 238 l 107 975 l 51 979 z "},"N":{"ha":634,"x_min":51,"x_max":583,"o":"m 51 979 l 51 0 l 100 0 l 100 890 l 530 0 l 583 0 l 583 970 l 534 975 l 534 86 l 107 975 l 51 979 z "},"O":{"ha":825,"x_min":51,"x_max":774,"o":"m 412 931 q 183 815 265 931 q 100 490 100 699 q 183 165 100 282 q 412 50 265 50 q 642 165 559 50 q 724 490 724 282 q 642 815 724 699 q 412 931 559 931 m 412 0 q 143 136 239 0 q 51 490 51 267 q 143 844 51 714 q 412 980 239 980 q 682 844 585 980 q 774 490 774 714 q 682 136 774 267 q 412 0 585 0 z "},"P":{"ha":665,"x_min":51,"x_max":614,"o":"m 100 481 l 291 481 q 493 540 421 481 q 564 706 564 599 q 493 872 564 813 q 291 930 421 930 l 100 930 l 100 481 m 51 0 l 51 980 l 291 980 q 527 906 440 980 q 614 706 614 833 q 527 506 614 579 q 291 432 440 432 l 100 432 l 100 0 l 51 0 z "},"Q":{"ha":825,"x_min":51,"x_max":774,"o":"m 412 951 q 183 836 265 951 q 100 510 100 718 q 183 185 100 302 q 401 70 262 74 l 404 70 l 407 71 q 479 90 439 90 q 513 87 494 90 l 515 87 l 518 87 q 642 185 592 116 q 724 510 724 302 q 642 836 724 718 q 412 951 559 951 m 693 0 q 589 20 659 0 l 557 29 q 524 36 538 34 l 522 37 l 519 36 q 412 20 469 20 l 406 20 l 401 20 q 143 157 236 25 q 51 510 51 286 q 143 864 51 734 q 412 1000 239 1000 q 682 864 585 1000 q 774 510 774 734 q 682 157 774 286 q 609 82 650 113 l 590 68 l 613 62 q 651 53 635 56 q 693 50 673 50 q 758 62 728 50 l 754 13 q 693 0 726 0 z "},"R":{"ha":669,"x_min":51,"x_max":618,"o":"m 100 540 l 317 540 q 494 591 431 540 q 556 735 556 642 q 494 880 556 828 q 317 930 431 930 l 100 930 l 100 540 m 51 0 l 51 980 l 317 980 q 528 914 450 980 q 606 735 606 848 q 471 520 606 581 l 448 509 l 479 496 l 483 494 l 498 486 q 512 477 506 481 l 521 471 q 526 467 522 470 l 536 458 l 539 455 l 545 448 l 555 437 l 568 420 q 573 411 570 418 l 576 405 l 581 397 l 584 390 l 591 373 l 593 368 l 594 363 l 595 358 q 599 346 597 352 l 601 334 l 603 320 l 604 311 l 606 293 l 606 65 q 618 1 606 31 l 572 1 q 556 65 557 30 l 556 293 l 555 316 l 553 328 l 552 338 q 549 348 551 343 l 549 352 l 547 359 l 546 360 l 542 372 l 539 379 l 536 385 l 534 389 l 532 394 l 528 399 l 520 410 l 511 422 l 508 425 l 497 435 l 494 438 l 493 439 l 487 444 q 477 450 482 447 l 466 457 q 460 460 464 458 l 459 461 l 452 465 l 441 469 l 430 473 l 418 477 l 406 480 l 401 481 l 393 484 l 384 485 l 375 486 l 367 488 l 360 488 l 352 489 l 345 490 l 338 490 l 333 490 l 317 490 l 100 490 l 100 0 l 51 0 z "},"S":{"ha":728,"x_min":51,"x_max":677,"o":"m 364 0 q 140 68 224 0 q 51 253 56 136 l 100 249 q 176 102 107 153 q 364 50 244 50 q 559 106 490 50 q 628 268 628 163 q 559 429 628 372 q 364 486 490 486 q 153 553 231 486 q 76 733 76 619 q 153 913 76 847 q 364 980 231 980 q 568 918 492 980 q 652 751 646 857 l 603 747 q 536 883 598 835 q 364 930 473 930 q 187 879 250 930 q 125 733 125 827 q 187 587 125 639 q 364 536 250 536 q 593 464 509 536 q 677 268 677 392 q 593 72 677 144 q 364 0 509 0 z "},"T":{"ha":682,"x_min":51,"x_max":631,"o":"m 51 980 l 51 930 l 317 930 l 317 0 l 366 0 l 366 930 l 631 930 l 631 980 l 51 980 z "},"U":{"ha":743,"x_min":51,"x_max":692,"o":"m 372 0 q 137 97 223 0 q 51 360 51 193 l 51 979 l 100 975 l 100 360 q 171 131 100 212 q 372 50 242 50 q 572 131 500 50 q 643 360 643 212 l 643 978 l 692 974 l 692 360 q 606 97 692 193 q 372 0 519 0 z "},"V":{"ha":753,"x_min":51,"x_max":702,"o":"m 101 979 l 51 975 l 347 0 l 406 0 l 702 973 l 652 977 l 376 73 l 101 979 z "},"W":{"ha":846,"x_min":51,"x_max":795,"o":"m 100 978 l 51 975 l 151 0 l 204 0 l 423 693 l 642 0 l 695 0 l 795 971 l 746 975 l 656 105 l 451 758 l 395 758 l 190 106 l 100 978 z "},"X":{"ha":825,"x_min":51,"x_max":774,"o":"m 682 984 l 412 564 l 146 980 l 90 975 l 383 519 l 51 0 l 109 0 l 412 473 l 715 0 l 774 0 l 442 519 l 737 979 l 682 984 z "},"Y":{"ha":748,"x_min":51,"x_max":697,"o":"m 642 984 l 373 564 l 106 980 l 51 975 l 349 511 l 349 0 l 397 0 l 397 511 l 697 979 l 642 984 z "},"Z":{"ha":778,"x_min":51,"x_max":727,"o":"m 100 980 l 96 931 l 669 931 l 51 57 l 51 0 l 724 0 l 727 50 l 106 50 l 718 915 l 718 980 l 100 980 z "},"[":{"ha":357,"x_min":51,"x_max":306,"o":"m 51 1057 l 51 -88 l 306 -109 l 306 -35 l 124 -20 l 124 989 l 306 1004 l 306 1078 l 51 1057 z "},"\\":{"ha":414,"x_min":51,"x_max":363,"o":"m 117 981 l 51 975 l 292 0 l 363 0 l 120 981 l 117 981 z "},"]":{"ha":357,"x_min":51,"x_max":306,"o":"m 51 1078 l 51 1004 l 233 989 l 233 -20 l 51 -35 l 51 -109 l 306 -88 l 306 1057 l 51 1078 z "},"^":{"ha":297,"x_min":51,"x_max":246,"o":"m 151 897 l 175 813 l 246 819 l 189 1024 l 115 1024 l 51 804 l 125 810 l 151 897 z "},"_":{"ha":357,"x_min":51,"x_max":306,"o":"m 306 -1 l 51 -22 l 51 -95 l 306 -75 l 306 -1 z "},"`":{"ha":248,"x_min":51,"x_max":197,"o":"m 119 1032 l 51 1004 l 129 761 l 197 789 l 119 1032 z "},"a":{"ha":607,"x_min":51,"x_max":556,"o":"m 304 630 q 133 518 184 630 q 106 422 115 477 q 100 340 100 382 q 106 258 100 297 q 133 162 115 203 q 304 50 184 50 q 474 162 423 50 q 501 258 492 203 q 507 340 507 297 q 501 422 507 382 q 474 518 492 477 q 304 630 423 630 m 513 0 l 507 81 l 507 122 l 486 92 q 434 38 463 59 l 431 36 q 304 0 376 0 q 182 33 235 0 l 177 35 l 174 38 q 51 340 51 121 q 174 642 51 559 q 179 646 174 642 l 184 648 q 304 680 237 680 q 425 647 372 680 l 433 642 q 486 588 463 621 l 507 557 l 507 595 l 513 675 l 556 679 l 556 0 l 513 0 z "},"b":{"ha":607,"x_min":51,"x_max":556,"o":"m 304 630 q 135 521 186 630 q 107 427 116 480 q 100 347 101 389 l 100 333 q 107 253 101 292 q 135 159 116 199 q 304 50 186 50 q 474 162 423 50 q 501 258 492 203 q 507 340 507 297 q 501 422 507 382 q 474 518 492 477 q 304 630 423 630 m 304 0 q 176 36 231 0 l 173 38 q 121 92 144 59 l 102 119 l 94 0 l 51 0 l 51 1009 l 100 1005 l 100 558 l 121 588 q 174 642 144 621 l 182 648 q 304 680 235 680 q 423 648 371 680 l 429 646 q 434 642 433 642 q 525 524 493 602 q 556 340 556 446 q 434 38 556 121 l 430 35 l 425 33 q 304 0 372 0 z "},"c":{"ha":583,"x_min":51,"x_max":532,"o":"m 304 0 q 119 92 186 0 q 51 340 51 182 q 119 589 51 497 q 304 680 186 680 q 444 634 385 680 q 532 505 503 589 l 481 501 q 304 630 431 630 q 133 518 184 630 q 106 422 115 477 q 100 340 100 382 q 106 258 100 297 q 133 162 115 203 q 304 50 184 50 q 422 92 374 50 q 481 179 460 123 l 532 175 q 444 45 503 91 q 304 0 385 0 z "},"d":{"ha":607,"x_min":51,"x_max":556,"o":"m 304 630 q 133 518 184 630 q 106 422 115 477 q 100 340 100 382 q 106 258 100 297 q 133 162 115 203 q 304 50 184 50 q 473 160 422 50 q 500 254 492 201 q 507 336 507 294 l 507 345 q 500 425 507 387 q 473 519 492 479 q 304 630 422 630 m 514 0 l 505 118 l 486 92 q 434 38 463 59 l 431 36 q 304 0 376 0 q 182 33 235 0 l 177 35 l 174 38 q 51 340 51 121 q 174 642 51 559 q 179 646 174 642 l 184 648 q 304 680 237 680 q 425 647 372 680 l 433 642 q 486 588 463 621 l 507 558 l 507 1002 l 556 998 l 556 0 l 514 0 z "},"e":{"ha":607,"x_min":51,"x_max":556,"o":"m 304 630 q 144 539 197 630 q 113 456 124 504 q 102 376 104 419 l 101 365 l 507 365 l 506 376 q 494 456 503 419 q 463 539 484 504 q 304 630 411 630 m 304 0 q 119 92 186 0 q 51 340 51 182 q 119 589 51 497 q 304 680 186 680 q 488 589 420 680 q 556 340 556 497 l 556 315 l 101 315 l 102 303 q 113 224 104 260 q 144 141 124 176 q 304 50 197 50 q 426 95 376 50 q 495 226 475 140 l 545 222 q 460 58 522 116 q 304 0 397 0 z "},"f":{"ha":423,"x_min":51,"x_max":372,"o":"m 136 4 l 136 629 l 51 629 l 55 679 l 136 679 l 137 690 q 203 912 142 830 q 369 1001 264 995 l 372 951 q 224 854 271 946 q 196 770 205 818 q 186 690 188 733 l 186 679 l 272 679 l 269 629 l 186 629 l 186 0 l 136 4 z "},"g":{"ha":607,"x_min":51,"x_max":556,"o":"m 303 627 q 132 514 183 627 q 106 418 114 473 q 100 336 100 379 q 106 254 100 294 q 132 158 114 199 q 303 46 183 46 q 472 156 421 46 q 500 250 491 197 q 506 331 506 289 l 506 342 q 500 422 506 384 q 472 516 491 476 q 303 627 421 627 m 304 -356 q 156 -304 217 -356 q 68 -159 95 -253 l 121 -163 q 304 -307 168 -307 q 474 -194 423 -307 q 501 -98 492 -153 q 507 -16 507 -59 l 507 121 l 486 92 q 434 38 463 58 l 431 36 q 304 0 376 0 q 182 33 235 0 l 177 35 l 174 38 q 51 340 51 121 q 174 642 51 558 q 179 645 174 642 l 184 648 q 304 680 237 680 q 425 647 372 680 l 433 642 q 486 588 463 621 l 507 557 l 507 595 l 513 675 l 556 678 l 556 -20 q 488 -266 555 -175 q 304 -356 420 -356 z "},"h":{"ha":607,"x_min":51,"x_max":556,"o":"m 51 0 l 51 1009 l 100 1005 l 100 558 l 121 588 q 174 642 144 621 l 182 648 q 304 680 235 680 q 423 648 371 680 l 429 646 q 434 642 433 642 q 525 524 493 602 q 556 340 556 446 l 556 0 l 507 0 l 507 340 q 501 422 507 382 q 474 518 492 477 q 304 630 423 630 q 134 519 184 630 q 106 424 115 478 q 100 342 100 385 l 100 0 l 51 0 z "},"i":{"ha":168,"x_min":51,"x_max":117,"o":"m 60 0 l 109 0 l 109 674 l 60 677 l 60 0 m 84 755 q 60 764 71 755 q 51 788 51 774 q 60 812 51 802 q 84 821 71 821 q 108 812 98 821 q 117 788 117 802 q 108 764 117 774 q 84 755 98 755 z "},"j":{"ha":348,"x_min":51,"x_max":297,"o":"m 51 -307 q 208 -193 161 -302 q 233 -101 226 -153 q 239 -23 239 -64 l 239 0 l 239 0 l 239 677 l 288 673 l 288 -23 q 224 -262 288 -174 q 51 -357 161 -352 l 51 -307 m 263 754 q 240 764 250 754 q 230 787 230 774 q 240 811 230 802 q 263 821 250 821 q 287 811 277 821 q 297 787 297 802 q 287 764 297 774 q 263 754 277 754 z "},"k":{"ha":571,"x_min":51,"x_max":520,"o":"m 51 1007 l 51 1 l 100 1 l 100 245 l 219 372 l 461 0 l 520 0 l 254 408 l 473 642 l 437 676 l 100 317 l 100 1003 l 51 1007 z "},"l":{"ha":151,"x_min":51,"x_max":100,"o":"m 51 1006 l 51 0 l 100 0 l 100 1002 l 51 1006 z "},"m":{"ha":1016,"x_min":51,"x_max":965,"o":"m 51 0 l 51 678 l 93 675 l 102 557 l 121 586 q 214 667 157 644 l 220 669 l 227 671 q 292 680 257 680 q 357 671 326 680 l 362 669 l 369 667 q 503 523 460 633 l 514 494 l 524 523 q 647 667 562 634 l 653 669 l 659 671 q 724 680 690 680 q 789 671 759 680 l 795 669 l 802 667 q 922 554 879 638 q 965 345 964 470 l 965 1 l 916 1 l 916 340 q 910 422 916 382 q 885 517 903 477 q 724 630 837 630 q 567 525 615 630 q 540 433 549 486 q 532 351 534 394 l 532 351 l 532 1 l 483 1 l 483 340 q 477 422 483 382 q 452 517 470 477 q 292 630 404 630 q 154 559 204 630 q 100 359 104 488 l 100 0 l 51 0 z "},"n":{"ha":583,"x_min":51,"x_max":532,"o":"m 362 669 l 357 671 q 292 680 326 680 q 227 671 257 680 l 220 669 l 214 667 q 100 546 139 637 l 100 581 l 93 675 l 51 678 l 51 0 l 100 0 l 100 359 q 109 441 102 402 q 136 530 118 492 q 292 630 185 630 q 452 517 404 630 q 477 422 470 477 q 483 340 483 382 l 483 1 l 532 1 l 532 345 q 489 554 532 470 q 369 667 446 638 l 362 669 z "},"o":{"ha":607,"x_min":51,"x_max":556,"o":"m 304 630 q 133 518 184 630 q 106 422 115 477 q 100 340 100 382 q 106 258 100 297 q 133 162 115 203 q 304 50 184 50 q 474 162 423 50 q 501 258 492 203 q 507 340 507 297 q 501 422 507 382 q 474 518 492 477 q 304 630 423 630 m 304 0 q 119 92 186 0 q 51 340 51 182 q 119 589 51 497 q 304 680 186 680 q 488 589 420 680 q 556 340 556 497 q 488 92 556 182 q 304 0 420 0 z "},"p":{"ha":607,"x_min":51,"x_max":556,"o":"m 304 630 q 134 518 184 630 q 106 423 115 477 q 100 341 100 384 l 100 338 q 106 256 100 296 q 134 161 115 202 q 304 50 184 50 q 474 162 423 50 q 501 258 492 203 q 507 340 507 297 q 501 422 507 382 q 474 517 492 477 q 304 630 423 630 m 51 675 l 94 678 l 100 595 l 100 557 l 121 588 q 174 642 144 621 l 176 644 q 304 680 231 680 q 425 647 372 680 l 430 644 l 434 642 q 556 340 556 558 q 434 38 556 121 q 429 35 433 37 l 423 31 q 304 0 371 0 q 182 33 235 0 l 174 38 q 121 92 144 59 l 100 122 l 100 -326 l 51 -330 l 51 675 z "},"q":{"ha":656,"x_min":51,"x_max":606,"o":"m 507 339 q 500 257 507 296 q 474 161 492 203 q 304 50 422 50 q 133 162 184 50 q 106 258 115 203 q 100 340 100 298 q 106 422 100 382 q 133 518 115 477 q 304 631 184 631 q 474 519 422 631 q 500 423 492 477 q 507 342 507 384 l 507 339 m 603 -294 l 557 -290 l 556 680 l 513 676 l 507 595 l 507 558 l 486 588 q 434 642 463 621 l 431 644 q 304 680 376 680 q 182 648 235 680 l 177 644 l 174 642 q 51 340 51 559 q 174 38 51 121 q 179 35 174 37 l 184 31 q 304 0 237 0 q 425 33 372 0 l 433 38 q 486 92 463 59 l 507 122 l 507 -328 l 602 -336 l 606 -294 l 603 -294 z "},"r":{"ha":363,"x_min":51,"x_max":313,"o":"m 51 0 l 51 679 l 93 675 l 103 551 l 121 579 q 214 659 157 637 l 220 661 l 227 663 q 292 672 257 672 q 313 671 302 672 l 313 621 q 292 623 302 623 q 155 551 204 623 q 100 351 104 481 l 100 0 l 51 0 z "},"s":{"ha":542,"x_min":51,"x_max":491,"o":"m 271 0 q 114 47 173 0 q 51 176 56 94 l 101 172 q 151 81 106 113 q 271 50 195 50 q 397 86 352 50 q 441 189 441 123 q 397 293 441 256 q 271 330 352 330 q 122 376 177 330 q 67 505 67 424 q 122 633 67 586 q 271 680 177 680 q 414 637 361 680 q 473 521 468 596 l 424 517 q 380 601 420 571 q 271 630 340 630 q 157 597 197 630 q 117 505 117 564 q 157 412 117 445 q 271 379 197 379 q 432 328 373 379 q 491 189 491 277 q 432 51 491 102 q 271 0 373 0 z "},"t":{"ha":339,"x_min":51,"x_max":288,"o":"m 288 0 q 184 41 222 3 q 144 141 144 79 l 144 630 l 51 630 l 55 680 l 144 680 l 144 910 l 194 906 l 194 680 l 288 680 l 284 630 l 194 630 l 194 141 q 284 50 194 58 l 288 0 z "},"u":{"ha":583,"x_min":51,"x_max":532,"o":"m 292 0 q 227 9 258 0 l 221 11 l 215 13 q 94 125 138 41 q 51 335 52 210 l 51 679 l 100 679 l 100 340 q 106 258 100 297 q 132 162 114 203 q 292 50 179 50 q 429 121 379 50 q 483 321 479 192 l 483 680 l 532 680 l 532 0 l 491 0 l 481 123 l 463 94 q 369 13 427 35 l 363 11 l 357 9 q 292 0 326 0 z "},"v":{"ha":587,"x_min":51,"x_max":536,"o":"m 486 676 l 294 71 l 102 675 l 51 671 l 264 0 l 323 0 l 536 672 l 486 676 z "},"w":{"ha":954,"x_min":51,"x_max":903,"o":"m 852 677 l 660 71 l 513 675 l 438 669 l 293 71 l 102 676 l 51 672 l 264 0 l 323 0 l 476 635 l 631 0 l 689 0 l 903 673 l 852 677 z "},"x":{"ha":622,"x_min":51,"x_max":571,"o":"m 486 679 l 311 406 l 138 676 l 82 671 l 281 360 l 51 0 l 110 0 l 311 314 l 512 0 l 571 0 l 340 360 l 542 674 l 486 679 z "},"y":{"ha":607,"x_min":51,"x_max":556,"o":"m 304 -357 q 156 -305 218 -357 q 68 -159 95 -254 l 121 -163 q 304 -307 168 -307 q 473 -196 422 -307 q 500 -102 492 -155 q 507 -20 507 -62 l 507 121 l 486 91 q 434 37 464 58 l 431 35 q 304 -1 376 -1 q 182 32 235 -1 l 177 35 l 174 37 q 51 339 51 120 l 51 672 l 100 676 l 100 339 q 106 257 100 296 q 133 161 115 202 q 304 49 184 49 q 474 161 423 49 q 501 257 492 202 q 507 339 507 296 l 507 673 l 556 677 l 556 -20 q 488 -267 555 -176 q 304 -357 420 -357 z "},"z":{"ha":569,"x_min":51,"x_max":518,"o":"m 96 680 l 92 630 l 461 630 l 51 50 l 51 0 l 511 0 l 515 50 l 112 50 l 518 625 l 518 680 l 96 680 z "},"{":{"ha":440,"x_min":51,"x_max":389,"o":"m 320 1024 l 389 1021 q 270 576 283 811 l 146 538 l 268 500 q 389 3 271 237 l 320 0 l 317 0 q 196 452 209 213 l 80 484 l 51 584 l 200 628 q 317 1024 222 837 l 320 1024 z "},"|":{"ha":172,"x_min":51,"x_max":121,"o":"m 51 1119 l 51 -176 l 121 -176 l 121 1114 l 54 1119 l 51 1119 z "},"}":{"ha":440,"x_min":51,"x_max":389,"o":"m 123 1024 q 239 628 218 837 l 389 584 l 360 484 l 244 452 q 123 0 231 213 l 120 0 l 51 3 q 172 500 169 237 l 294 538 l 170 576 q 51 1021 157 811 l 120 1024 l 123 1024 z "},"~":{"ha":357,"x_min":51,"x_max":306,"o":"m 51 444 q 115 437 79 432 q 178 454 136 440 q 306 464 263 481 l 306 537 q 178 527 263 554 l 146 517 q 115 510 129 512 q 51 517 79 505 l 51 444 z "},"¡":{"ha":204,"x_min":51,"x_max":153,"o":"m 51 0 l 153 5 l 138 800 l 81 795 l 51 0 m 110 1004 q 136 993 125 1004 q 146 967 146 982 q 136 941 146 952 q 110 930 125 930 q 84 941 95 930 q 73 967 73 952 q 84 993 73 982 q 110 1004 95 1004 z "},"¢":{"ha":596,"x_min":51,"x_max":545,"o":"m 121 490 q 127 567 121 530 q 151 656 134 618 q 308 762 198 762 q 330 761 318 762 l 205 252 q 136 370 156 290 q 124 436 127 401 q 121 490 121 463 m 473 345 q 419 259 454 291 q 308 218 375 218 q 268 222 287 218 l 395 739 q 473 636 448 708 l 545 642 q 413 809 509 764 l 454 975 l 388 981 l 385 981 l 347 829 q 308 832 328 832 q 120 741 189 832 q 51 490 51 648 q 87 298 51 378 q 186 180 122 218 l 142 0 l 212 0 l 251 155 q 308 149 278 149 q 456 198 394 149 q 545 339 518 248 l 473 345 z "},"£":{"ha":686,"x_min":51,"x_max":635,"o":"m 410 766 q 520 718 480 766 q 562 583 559 671 l 635 578 q 574 769 634 699 q 410 840 513 840 q 268 791 326 840 q 192 656 210 742 l 51 45 l 87 0 l 604 0 l 610 73 l 133 73 l 177 266 l 418 285 l 418 358 l 194 340 l 208 402 l 418 419 l 418 492 l 226 477 l 263 641 q 410 766 290 766 z "},"¤":{"ha":623,"x_min":51,"x_max":572,"o":"m 205 380 q 273 341 233 353 q 312 336 292 336 q 351 341 332 336 q 418 380 391 353 q 457 447 446 408 q 463 486 463 467 q 457 526 463 506 q 418 593 446 565 q 351 631 391 620 q 311 637 331 637 q 272 631 292 637 q 205 593 233 619 q 168 526 179 566 q 161 486 161 506 q 167 448 161 467 q 205 380 178 408 m 131 612 l 51 692 l 105 747 l 185 667 q 252 699 215 688 q 313 708 282 708 q 369 700 340 708 q 438 667 408 688 l 518 747 l 572 692 l 493 613 q 526 544 514 582 q 534 486 534 515 q 526 429 534 458 q 493 359 514 391 l 572 280 l 518 225 l 438 305 q 370 273 408 283 q 312 264 341 264 q 254 273 283 264 q 185 305 216 283 l 105 225 l 51 280 l 131 359 q 98 429 109 391 q 90 486 90 458 q 99 545 90 516 q 131 612 110 583 z "},"¥":{"ha":656,"x_min":51,"x_max":606,"o":"m 544 867 l 328 530 l 113 867 l 51 827 l 292 452 l 292 420 l 201 412 l 201 339 l 292 347 l 292 286 l 201 279 l 201 205 l 292 212 l 292 0 l 365 0 l 365 218 l 456 226 l 456 299 l 365 292 l 365 353 l 456 359 l 456 433 l 365 426 l 365 452 l 606 827 l 544 867 z "},"¦":{"ha":195,"x_min":51,"x_max":144,"o":"m 71 1042 l 51 787 l 124 787 l 144 1042 l 71 1042 m 71 153 l 51 -102 l 124 -102 l 144 153 l 71 153 z "},"§":{"ha":583,"x_min":51,"x_max":532,"o":"m 364 447 q 337 446 351 446 q 300 448 317 446 q 260 460 278 452 q 206 526 216 480 q 245 529 224 529 q 281 526 264 529 q 317 515 301 523 q 364 447 359 494 m 337 385 q 479 431 427 385 q 532 553 532 475 q 479 677 532 631 q 337 722 427 722 q 299 726 317 722 q 260 739 277 730 q 217 819 217 763 q 260 897 217 873 q 299 911 277 907 q 337 914 317 914 q 374 911 357 914 q 414 897 397 907 q 456 819 456 873 l 517 823 q 467 934 515 894 q 337 975 419 975 q 205 932 254 975 q 157 819 157 890 q 205 704 157 746 q 337 662 254 662 q 379 658 359 662 q 422 643 404 653 q 471 553 471 616 q 422 465 471 492 q 366 556 412 524 q 245 590 319 590 q 113 547 162 590 q 65 433 65 505 q 113 319 65 361 q 245 277 162 277 q 288 273 268 277 q 331 258 313 268 q 379 169 379 231 q 331 79 379 106 q 288 64 313 69 q 245 60 268 60 q 204 64 223 60 q 161 79 180 68 q 112 163 114 104 l 51 168 q 103 45 51 90 q 245 0 155 0 q 387 45 335 0 q 440 169 440 91 q 387 292 440 247 q 245 337 335 337 q 208 340 225 337 q 169 354 185 345 q 125 433 125 378 q 151 498 125 475 q 216 415 167 445 q 337 385 264 385 z "},"¨":{"ha":496,"x_min":51,"x_max":445,"o":"m 60 874 l 109 923 q 125 931 117 931 q 144 922 133 931 l 191 872 q 197 855 197 863 q 189 837 197 846 l 142 786 q 125 774 131 774 q 109 783 116 774 l 57 841 q 51 857 51 849 q 60 874 51 865 m 308 874 l 356 923 q 373 931 365 931 q 391 922 380 931 l 438 872 q 445 855 445 863 q 437 838 445 846 l 390 786 q 373 774 378 774 q 356 783 363 774 l 304 842 q 298 857 298 849 q 308 874 298 865 z "},"©":{"ha":714,"x_min":51,"x_max":663,"o":"m 357 840 q 176 749 241 840 q 110 486 110 654 q 176 224 110 319 q 357 134 241 134 q 538 224 473 134 q 604 486 604 319 q 538 749 604 654 q 357 840 473 840 m 357 75 q 128 191 210 75 q 51 486 51 300 q 128 783 51 673 q 357 899 210 899 q 586 783 504 899 q 663 486 663 673 q 586 191 663 300 q 357 75 504 75 m 523 376 q 463 281 505 314 q 363 247 421 247 q 237 309 283 247 q 191 477 191 370 q 237 645 191 583 q 363 707 283 707 q 463 673 421 707 q 523 578 505 640 l 522 578 l 475 574 q 439 632 462 611 q 363 659 408 659 q 258 589 290 659 q 242 528 247 563 q 238 477 238 504 q 242 425 238 450 q 258 365 247 391 q 363 294 290 294 q 438 321 408 294 q 475 379 462 342 l 523 376 z "},"ª":{"ha":439,"x_min":0,"x_max":0,"o":""},"«":{"ha":379,"x_min":51,"x_max":328,"o":"m 256 595 l 52 538 l 51 465 l 271 400 l 269 425 l 135 465 l 136 538 l 258 572 l 256 595 m 149 529 l 149 473 l 328 420 l 323 475 l 239 500 l 320 523 l 316 576 l 149 529 z "},"¬":{"ha":671,"x_min":51,"x_max":621,"o":"m 51 520 l 621 520 l 621 187 l 620 186 l 553 186 l 553 452 l 51 452 l 51 520 z "},"®":{"ha":712,"x_min":51,"x_max":661,"o":"m 358 522 q 435 543 408 522 q 461 604 461 565 q 435 665 461 644 q 358 687 408 687 l 265 687 l 265 522 l 358 522 m 220 242 l 220 732 l 358 732 q 467 698 427 732 q 507 604 507 663 q 446 497 507 530 q 458 490 453 493 l 462 487 l 463 486 l 465 484 l 470 480 l 472 478 l 475 475 l 480 469 l 481 469 l 486 460 l 488 458 l 490 454 l 492 452 l 494 448 l 496 443 l 499 435 q 500 429 500 433 l 501 427 l 503 420 l 505 414 l 505 408 l 506 403 q 507 393 507 393 l 507 284 q 515 251 507 266 l 520 243 l 473 243 l 472 245 q 461 284 462 263 l 462 393 l 461 395 l 461 404 l 460 408 l 460 412 l 458 416 l 458 418 l 457 422 l 455 427 l 454 430 l 453 432 l 452 435 l 450 437 l 447 443 l 441 449 l 437 453 l 435 454 l 433 456 q 424 462 430 458 l 421 464 l 418 465 q 409 469 412 468 l 408 469 l 404 471 l 398 472 l 396 473 l 388 474 l 384 475 l 378 475 l 374 476 l 371 476 l 368 476 l 366 476 l 357 477 l 265 477 l 265 242 l 220 242 m 356 839 q 176 748 240 839 q 110 487 110 654 q 176 227 110 319 q 356 136 240 136 q 536 227 472 136 q 602 487 602 319 q 536 748 602 654 q 356 839 472 839 m 356 77 q 128 192 210 77 q 51 487 51 301 q 128 782 51 673 q 356 898 210 898 q 584 782 503 898 q 661 487 661 673 q 584 192 661 301 q 356 77 503 77 z "},"¯":{"ha":454,"x_min":0,"x_max":0,"o":""},"°":{"ha":479,"x_min":51,"x_max":428,"o":"m 240 930 q 140 889 182 930 q 98 789 98 848 q 140 689 98 730 q 240 648 181 648 q 340 689 299 648 q 380 789 380 730 q 339 889 380 848 q 240 930 298 930 m 240 978 q 373 923 318 978 q 428 789 428 867 q 372 656 428 712 q 239 601 317 601 q 105 656 159 601 q 51 789 51 711 q 106 923 51 868 q 240 978 161 978 z "},"±":{"ha":688,"x_min":0,"x_max":0,"o":""},"²":{"ha":688,"x_min":0,"x_max":0,"o":""},"³":{"ha":688,"x_min":0,"x_max":0,"o":""},"´":{"ha":248,"x_min":51,"x_max":197,"o":"m 51 789 l 119 761 l 197 1004 l 129 1032 l 51 789 z "},"µ":{"ha":800,"x_min":0,"x_max":0,"o":""},"¶":{"ha":669,"x_min":51,"x_max":618,"o":"m 618 973 l 618 926 l 532 926 l 532 0 l 476 0 l 476 926 l 363 926 l 363 0 l 307 0 l 307 500 q 120 570 189 506 q 51 736 51 634 q 124 908 51 843 q 317 973 197 973 l 618 973 z "},"·":{"ha":229,"x_min":51,"x_max":178,"o":"m 114 642 q 69 623 88 642 q 51 578 51 605 q 69 534 51 553 q 114 515 88 515 q 159 534 140 515 q 178 578 178 553 q 159 623 178 605 q 114 642 140 642 z "},"¸":{"ha":370,"x_min":51,"x_max":319,"o":"m 319 -185 q 283 -282 319 -246 q 185 -319 246 -319 q 91 -286 127 -319 q 51 -197 54 -253 l 121 -191 q 185 -248 125 -248 q 249 -185 249 -248 q 185 -122 249 -122 l 150 -87 l 150 2 l 220 2 l 220 -55 q 293 -99 267 -65 q 319 -185 319 -134 z "},"¹":{"ha":688,"x_min":0,"x_max":0,"o":""},"º":{"ha":487,"x_min":0,"x_max":0,"o":""},"»":{"ha":379,"x_min":51,"x_max":328,"o":"m 121 572 l 243 538 l 243 465 l 109 425 l 108 400 l 328 465 l 328 538 l 122 595 l 121 572 m 62 576 l 58 523 l 139 500 l 55 475 l 51 420 l 231 473 l 230 529 l 62 576 z "},"¼":{"ha":1158,"x_min":0,"x_max":0,"o":""},"½":{"ha":1332,"x_min":0,"x_max":0,"o":""},"¾":{"ha":1158,"x_min":0,"x_max":0,"o":""},"¿":{"ha":589,"x_min":51,"x_max":538,"o":"m 323 795 l 323 439 l 295 439 q 155 390 204 439 q 106 248 106 340 q 155 105 106 155 q 295 56 204 56 q 431 102 383 56 q 484 235 480 149 l 538 231 q 469 62 534 124 q 295 0 404 0 q 117 66 182 0 q 51 248 51 133 q 106 418 51 353 q 259 494 161 483 l 267 494 l 267 800 l 323 795 m 295 1004 q 321 994 310 1004 q 332 968 332 983 q 321 942 332 953 q 295 931 310 931 q 269 942 280 931 q 258 968 258 953 q 269 994 258 983 q 295 1004 280 1004 z "},"À":{"ha":785,"x_min":51,"x_max":734,"o":"m 51 0 l 99 0 l 206 334 l 579 334 l 686 0 l 734 0 l 422 975 l 364 979 l 51 0 m 393 918 l 564 384 l 222 384 l 393 918 m 380 1171 l 293 1164 l 373 1053 l 422 1057 l 380 1171 z "},"Á":{"ha":785,"x_min":51,"x_max":734,"o":"m 51 0 l 99 0 l 206 334 l 579 334 l 686 0 l 734 0 l 422 975 l 364 979 l 51 0 m 393 918 l 564 384 l 222 384 l 393 918 m 414 1171 l 372 1057 l 421 1053 l 501 1164 l 414 1171 z "},"Â":{"ha":785,"x_min":51,"x_max":734,"o":"m 51 0 l 99 0 l 206 334 l 579 334 l 686 0 l 734 0 l 422 975 l 364 979 l 51 0 m 393 918 l 564 384 l 222 384 l 393 918 m 395 1183 l 395 1183 l 395 1183 l 304 1104 l 321 1063 l 395 1122 l 469 1063 l 485 1104 l 395 1183 z "},"Ã":{"ha":785,"x_min":51,"x_max":734,"o":"m 51 0 l 99 0 l 206 334 l 579 334 l 686 0 l 734 0 l 422 975 l 364 979 l 51 0 m 393 918 l 564 384 l 222 384 l 393 918 m 479 1127 q 437 1114 460 1112 q 395 1126 422 1115 l 374 1135 q 352 1141 361 1139 q 310 1131 329 1144 l 306 1080 l 306 1078 q 348 1092 325 1094 q 391 1079 363 1090 l 412 1070 q 433 1065 424 1066 q 475 1074 456 1061 l 479 1127 z "},"Ä":{"ha":785,"x_min":51,"x_max":734,"o":"m 51 0 l 99 0 l 206 334 l 579 334 l 686 0 l 734 0 l 422 975 l 364 979 l 51 0 m 393 918 l 564 384 l 222 384 l 393 918 m 452 1135 q 430 1125 439 1135 q 420 1103 420 1116 q 430 1080 420 1089 q 452 1071 439 1071 q 475 1080 466 1071 q 484 1103 484 1089 q 475 1125 484 1116 q 452 1135 466 1135 m 333 1135 q 311 1125 319 1135 q 301 1103 301 1116 q 311 1080 301 1089 q 333 1071 319 1071 q 355 1080 346 1071 q 365 1103 365 1089 q 355 1125 365 1116 q 333 1135 346 1135 z "},"Å":{"ha":785,"x_min":51,"x_max":734,"o":"m 51 0 l 99 0 l 206 334 l 579 334 l 686 0 l 734 0 l 422 975 l 364 979 l 51 0 m 393 918 l 564 384 l 222 384 l 393 918 m 393 1043 q 374 1051 381 1043 q 366 1070 366 1059 q 374 1090 366 1082 q 393 1097 381 1097 q 412 1090 404 1097 q 420 1070 420 1082 q 412 1051 420 1059 q 393 1043 404 1043 m 454 1070 q 436 1114 454 1096 q 393 1132 418 1132 q 349 1114 367 1132 q 331 1070 331 1096 q 349 1027 331 1045 q 393 1008 367 1008 q 436 1027 418 1008 q 454 1070 454 1045 z "},"Æ":{"ha":949,"x_min":51,"x_max":899,"o":"m 364 980 l 51 1 l 99 1 l 206 335 l 365 335 l 365 0 l 890 0 l 890 50 l 414 50 l 414 469 l 858 469 l 862 519 l 414 519 l 414 931 l 895 931 l 899 980 l 364 980 m 365 831 l 365 385 l 222 385 l 365 831 z "},"Ç":{"ha":790,"x_min":51,"x_max":739,"o":"m 412 -1 q 143 135 239 -1 q 51 488 51 264 q 143 842 51 712 q 412 979 239 979 q 614 913 530 979 q 739 726 699 848 l 688 722 q 599 862 656 810 q 412 929 524 929 q 183 814 265 929 q 100 488 100 696 q 183 163 100 280 q 412 47 265 47 q 599 115 524 47 q 688 255 656 167 l 739 251 q 614 64 699 129 q 412 -1 530 -1 m 481 -104 q 458 -167 481 -143 q 395 -190 434 -190 q 334 -169 357 -190 q 309 -112 311 -148 l 354 -109 q 395 -144 356 -144 q 435 -104 435 -144 q 395 -64 435 -64 l 372 -41 l 372 16 l 418 16 l 418 -21 q 481 -104 481 -35 z "},"È":{"ha":635,"x_min":51,"x_max":585,"o":"m 51 980 l 51 0 l 576 0 l 576 50 l 100 50 l 100 469 l 544 469 l 548 519 l 100 519 l 100 931 l 581 931 l 585 980 l 51 980 m 305 1171 l 218 1164 l 298 1054 l 348 1058 l 305 1171 z "},"É":{"ha":635,"x_min":51,"x_max":585,"o":"m 51 980 l 51 0 l 576 0 l 576 50 l 100 50 l 100 469 l 544 469 l 548 519 l 100 519 l 100 931 l 581 931 l 585 980 l 51 980 m 339 1171 l 296 1058 l 347 1054 l 427 1164 l 339 1171 z "},"Ê":{"ha":635,"x_min":51,"x_max":585,"o":"m 51 980 l 51 0 l 576 0 l 576 50 l 100 50 l 100 469 l 544 469 l 548 519 l 100 519 l 100 931 l 581 931 l 585 980 l 51 980 m 320 1184 l 320 1184 l 319 1184 l 230 1105 l 245 1063 l 320 1123 l 394 1063 l 410 1105 l 320 1184 z "},"Ë":{"ha":635,"x_min":51,"x_max":585,"o":"m 51 980 l 51 0 l 576 0 l 576 50 l 100 50 l 100 469 l 544 469 l 548 519 l 100 519 l 100 931 l 581 931 l 585 980 l 51 980 m 378 1135 q 355 1126 365 1135 q 346 1103 346 1116 q 355 1080 346 1090 q 378 1072 365 1072 q 400 1080 391 1072 q 410 1103 410 1090 q 400 1126 410 1116 q 378 1135 391 1135 m 258 1135 q 235 1126 245 1135 q 226 1103 226 1116 q 235 1080 226 1090 q 258 1072 245 1072 q 280 1080 271 1072 q 290 1103 290 1090 q 280 1126 290 1116 q 258 1135 271 1135 z "},"Ì":{"ha":231,"x_min":51,"x_max":180,"o":"m 126 0 l 176 0 l 176 975 l 126 979 l 126 0 m 138 1171 l 51 1164 l 131 1053 l 180 1057 l 138 1171 z "},"Í":{"ha":235,"x_min":51,"x_max":184,"o":"m 51 0 l 100 0 l 100 975 l 51 979 l 51 0 m 96 1171 l 54 1057 l 104 1053 l 184 1164 l 96 1171 z "},"Î":{"ha":282,"x_min":51,"x_max":231,"o":"m 115 0 l 163 0 l 163 975 l 115 979 l 115 0 m 141 1183 l 141 1183 l 141 1183 l 51 1104 l 67 1063 l 141 1122 l 215 1063 l 231 1104 l 141 1183 z "},"Ï":{"ha":285,"x_min":51,"x_max":234,"o":"m 118 0 l 167 0 l 167 975 l 118 979 l 118 0 m 202 1135 q 180 1125 189 1135 q 171 1103 171 1116 q 180 1080 171 1089 q 202 1071 189 1071 q 225 1080 216 1071 q 234 1103 234 1089 q 225 1125 234 1116 q 202 1135 216 1135 m 83 1135 q 60 1125 69 1135 q 51 1103 51 1116 q 60 1080 51 1089 q 83 1071 69 1071 q 105 1080 96 1071 q 115 1103 115 1089 q 105 1125 115 1116 q 83 1135 96 1135 z "},"Ð":{"ha":855,"x_min":51,"x_max":804,"o":"m 200 50 l 443 50 q 672 165 591 50 q 755 490 755 282 q 672 815 755 699 q 443 931 591 931 l 200 931 l 200 50 m 151 0 l 151 980 l 443 980 q 712 844 616 980 q 804 490 804 714 q 712 136 804 267 q 443 0 616 0 l 151 0 m 290 465 l 51 465 l 55 515 l 290 515 l 290 465 z "},"Ñ":{"ha":634,"x_min":51,"x_max":583,"o":"m 51 0 l 100 0 l 100 890 l 530 0 l 583 0 l 583 970 l 534 975 l 534 86 l 107 975 l 51 979 l 51 0 m 402 1127 q 359 1114 383 1112 q 317 1126 345 1115 l 296 1135 q 275 1141 284 1139 q 233 1131 251 1144 l 228 1080 l 228 1078 q 271 1092 247 1094 q 313 1079 286 1090 l 334 1070 q 355 1065 346 1066 q 398 1074 379 1061 l 402 1127 z "},"Ò":{"ha":825,"x_min":51,"x_max":774,"o":"m 412 931 q 183 815 265 931 q 100 490 100 699 q 183 165 100 282 q 412 50 265 50 q 642 165 559 50 q 724 490 724 282 q 642 815 724 699 q 412 931 559 931 m 412 0 q 143 136 239 0 q 51 490 51 267 q 143 844 51 714 q 412 980 239 980 q 682 844 585 980 q 774 490 774 714 q 682 136 774 267 q 412 0 585 0 m 312 1162 l 392 1052 l 442 1056 l 400 1170 l 312 1162 z "},"Ó":{"ha":825,"x_min":51,"x_max":774,"o":"m 412 931 q 183 815 265 931 q 100 490 100 699 q 183 165 100 282 q 412 50 265 50 q 642 165 559 50 q 724 490 724 282 q 642 815 724 699 q 412 931 559 931 m 412 0 q 143 136 239 0 q 51 490 51 267 q 143 844 51 714 q 412 980 239 980 q 682 844 585 980 q 774 490 774 714 q 682 136 774 267 q 412 0 585 0 m 521 1162 l 441 1052 l 391 1056 l 433 1170 l 521 1162 z "},"Ô":{"ha":825,"x_min":51,"x_max":774,"o":"m 412 931 q 183 815 265 931 q 100 490 100 699 q 183 165 100 282 q 412 50 265 50 q 642 165 559 50 q 724 490 724 282 q 642 815 724 699 q 412 931 559 931 m 412 0 q 143 136 239 0 q 51 490 51 267 q 143 844 51 714 q 412 980 239 980 q 682 844 585 980 q 774 490 774 714 q 682 136 774 267 q 412 0 585 0 m 505 1103 l 414 1182 l 414 1182 l 414 1182 l 324 1103 l 340 1061 l 414 1121 l 488 1061 l 505 1103 z "},"Õ":{"ha":825,"x_min":51,"x_max":774,"o":"m 412 931 q 183 815 265 931 q 100 490 100 699 q 183 165 100 282 q 412 50 265 50 q 642 165 559 50 q 724 490 724 282 q 642 815 724 699 q 412 931 559 931 m 412 0 q 143 136 239 0 q 51 490 51 267 q 143 844 51 714 q 412 980 239 980 q 682 844 585 980 q 774 490 774 714 q 682 136 774 267 q 412 0 585 0 m 499 1126 q 456 1112 480 1110 q 414 1125 442 1114 l 393 1134 q 372 1139 381 1138 q 330 1129 348 1143 l 326 1078 l 326 1076 q 368 1090 345 1092 q 410 1077 382 1088 l 431 1069 q 452 1063 444 1065 q 495 1073 476 1059 l 499 1126 z "},"Ö":{"ha":825,"x_min":51,"x_max":774,"o":"m 412 931 q 183 815 265 931 q 100 490 100 699 q 183 165 100 282 q 412 50 265 50 q 642 165 559 50 q 724 490 724 282 q 642 815 724 699 q 412 931 559 931 m 412 0 q 143 136 239 0 q 51 490 51 267 q 143 844 51 714 q 412 980 239 980 q 682 844 585 980 q 774 490 774 714 q 682 136 774 267 q 412 0 585 0 m 472 1133 q 450 1124 459 1133 q 440 1101 440 1114 q 450 1079 440 1088 q 472 1069 459 1069 q 494 1079 486 1069 q 504 1101 504 1088 q 494 1124 504 1114 q 472 1133 486 1133 m 353 1133 q 330 1124 339 1133 q 321 1101 321 1114 q 330 1079 321 1088 q 353 1069 339 1069 q 375 1079 366 1069 q 384 1101 384 1088 q 375 1124 384 1114 q 353 1133 366 1133 z "},"×":{"ha":349,"x_min":51,"x_max":298,"o":"m 245 639 l 298 587 l 226 526 l 283 458 l 231 407 l 170 478 l 102 421 l 51 473 l 123 534 l 65 602 l 117 653 l 178 581 l 245 639 z "},"Ø":{"ha":825,"x_min":51,"x_max":774,"o":"m 412 930 q 183 815 265 930 q 100 490 100 698 q 183 165 100 281 q 412 49 265 49 q 642 165 559 49 q 724 490 724 281 q 642 815 724 698 q 412 930 559 930 m 412 0 q 143 136 239 0 q 51 490 51 266 q 143 844 51 713 q 412 980 239 980 q 682 844 585 980 q 774 490 774 713 q 682 136 774 266 q 412 0 585 0 m 261 -79 l 518 1058 l 566 1055 l 311 -79 l 261 -79 z "},"Ù":{"ha":743,"x_min":51,"x_max":692,"o":"m 357 1171 l 269 1164 l 349 1053 l 399 1057 l 357 1171 m 372 0 q 137 97 223 0 q 51 360 51 193 l 51 979 l 100 975 l 100 360 q 171 131 100 212 q 372 50 242 50 q 572 131 500 50 q 643 360 643 212 l 643 978 l 692 974 l 692 360 q 606 97 692 193 q 372 0 519 0 z "},"Ú":{"ha":743,"x_min":51,"x_max":692,"o":"m 391 1171 l 348 1057 l 398 1053 l 478 1164 l 391 1171 m 372 0 q 137 97 223 0 q 51 360 51 193 l 51 979 l 100 975 l 100 360 q 171 131 100 212 q 372 50 242 50 q 572 131 500 50 q 643 360 643 212 l 643 978 l 692 974 l 692 360 q 606 97 692 193 q 372 0 519 0 z "},"Û":{"ha":743,"x_min":51,"x_max":692,"o":"m 372 1183 l 372 1183 l 371 1183 l 281 1104 l 297 1063 l 372 1122 l 446 1063 l 462 1104 l 372 1183 m 372 0 q 137 97 223 0 q 51 360 51 193 l 51 979 l 100 975 l 100 360 q 171 131 100 212 q 372 50 242 50 q 572 131 500 50 q 643 360 643 212 l 643 978 l 692 974 l 692 360 q 606 97 692 193 q 372 0 519 0 z "},"Ü":{"ha":743,"x_min":51,"x_max":692,"o":"m 429 1134 q 407 1124 416 1134 q 397 1102 397 1116 q 407 1080 397 1089 q 429 1070 416 1070 q 452 1080 442 1070 q 461 1102 461 1089 q 452 1124 461 1116 q 429 1134 442 1134 m 309 1134 q 287 1124 296 1134 q 277 1102 277 1116 q 287 1080 277 1089 q 309 1070 296 1070 q 332 1080 323 1070 q 341 1102 341 1089 q 332 1124 341 1116 q 309 1134 323 1134 m 372 0 q 137 97 223 0 q 51 360 51 193 l 51 979 l 100 975 l 100 360 q 171 131 100 212 q 372 50 242 50 q 572 131 500 50 q 643 360 643 212 l 643 978 l 692 974 l 692 360 q 606 97 692 193 q 372 0 519 0 z "},"Ý":{"ha":748,"x_min":51,"x_max":697,"o":"m 373 564 l 106 980 l 51 975 l 349 511 l 349 0 l 397 0 l 397 511 l 697 979 l 642 984 l 373 564 m 395 1173 l 353 1060 l 403 1056 l 483 1166 l 395 1173 z "},"Þ":{"ha":517,"x_min":51,"x_max":467,"o":"m 100 218 l 100 761 l 106 761 q 336 690 255 761 q 417 490 417 619 q 336 290 417 360 q 106 218 255 218 l 100 218 m 100 810 l 100 975 l 51 979 l 51 0 l 100 0 l 100 170 l 106 170 q 370 256 273 170 q 467 490 467 341 q 370 724 467 638 q 106 810 273 810 l 100 810 z "},"ß":{"ha":693,"x_min":51,"x_max":642,"o":"m 51 5 l 51 680 q 119 930 51 838 q 307 1022 188 1022 q 524 954 444 1022 q 604 770 604 886 q 484 557 604 623 l 467 548 l 484 541 q 602 444 560 508 q 642 294 642 380 q 554 91 642 165 q 315 16 466 16 l 260 16 l 265 72 l 315 72 q 515 130 444 72 q 587 294 587 189 q 515 458 587 401 q 315 517 444 517 l 264 517 l 269 572 l 307 572 q 485 624 421 572 q 548 770 548 675 q 485 915 548 863 q 307 966 421 966 q 139 856 189 966 q 113 761 121 814 q 106 680 106 722 l 106 0 l 51 5 z "},"à":{"ha":607,"x_min":51,"x_max":556,"o":"m 291 871 l 203 865 l 283 754 l 334 758 l 291 871 m 304 630 q 133 518 184 630 q 106 422 115 477 q 100 340 100 382 q 106 258 100 297 q 133 162 115 203 q 304 50 184 50 q 474 162 423 50 q 501 258 492 203 q 507 340 507 297 q 501 422 507 382 q 474 518 492 477 q 304 630 423 630 m 513 0 l 507 81 l 507 122 l 486 92 q 434 38 463 59 l 431 36 q 304 0 376 0 q 182 33 235 0 l 177 35 l 174 38 q 51 340 51 121 q 174 642 51 559 q 179 646 174 642 l 184 648 q 304 680 237 680 q 425 647 372 680 l 433 642 q 486 588 463 621 l 507 557 l 507 595 l 513 675 l 556 679 l 556 0 l 513 0 z "},"á":{"ha":607,"x_min":51,"x_max":556,"o":"m 325 871 l 282 758 l 332 754 l 412 865 l 325 871 m 304 630 q 133 518 184 630 q 106 422 115 477 q 100 340 100 382 q 106 258 100 297 q 133 162 115 203 q 304 50 184 50 q 474 162 423 50 q 501 258 492 203 q 507 340 507 297 q 501 422 507 382 q 474 518 492 477 q 304 630 423 630 m 513 0 l 507 81 l 507 122 l 486 92 q 434 38 463 59 l 431 36 q 304 0 376 0 q 182 33 235 0 l 177 35 l 174 38 q 51 340 51 121 q 174 642 51 559 q 179 646 174 642 l 184 648 q 304 680 237 680 q 425 647 372 680 l 433 642 q 486 588 463 621 l 507 557 l 507 595 l 513 675 l 556 679 l 556 0 l 513 0 z "},"â":{"ha":607,"x_min":51,"x_max":556,"o":"m 306 884 l 306 884 l 305 884 l 216 805 l 231 764 l 306 823 l 380 764 l 396 805 l 306 884 m 304 630 q 133 518 184 630 q 106 422 115 477 q 100 340 100 382 q 106 258 100 297 q 133 162 115 203 q 304 50 184 50 q 474 162 423 50 q 501 258 492 203 q 507 340 507 297 q 501 422 507 382 q 474 518 492 477 q 304 630 423 630 m 513 0 l 507 81 l 507 122 l 486 92 q 434 38 463 59 l 431 36 q 304 0 376 0 q 182 33 235 0 l 177 35 l 174 38 q 51 340 51 121 q 174 642 51 559 q 179 646 174 642 l 184 648 q 304 680 237 680 q 425 647 372 680 l 433 642 q 486 588 463 621 l 507 557 l 507 595 l 513 675 l 556 679 l 556 0 l 513 0 z "},"ã":{"ha":607,"x_min":51,"x_max":556,"o":"m 391 827 q 348 814 372 812 q 306 827 334 815 l 284 836 q 263 841 273 840 q 221 831 239 844 l 216 781 l 216 779 q 259 792 235 794 q 302 779 274 791 l 323 770 q 344 765 334 766 q 387 774 368 762 l 391 827 m 304 630 q 133 518 184 630 q 106 422 115 477 q 100 340 100 382 q 106 258 100 297 q 133 162 115 203 q 304 50 184 50 q 474 162 423 50 q 501 258 492 203 q 507 340 507 297 q 501 422 507 382 q 474 518 492 477 q 304 630 423 630 m 513 0 l 507 81 l 507 122 l 486 92 q 434 38 463 59 l 431 36 q 304 0 376 0 q 182 33 235 0 l 177 35 l 174 38 q 51 340 51 121 q 174 642 51 559 q 179 646 174 642 l 184 648 q 304 680 237 680 q 425 647 372 680 l 433 642 q 486 588 463 621 l 507 557 l 507 595 l 513 675 l 556 679 l 556 0 l 513 0 z "},"ä":{"ha":607,"x_min":51,"x_max":556,"o":"m 363 835 q 341 825 351 835 q 332 803 332 817 q 341 781 332 790 q 363 771 351 771 q 386 781 376 771 q 395 803 395 790 q 386 825 395 817 q 363 835 376 835 m 243 835 q 221 825 231 835 q 212 803 212 817 q 221 781 212 790 q 243 771 231 771 q 266 781 257 771 q 275 803 275 790 q 266 825 275 817 q 243 835 257 835 m 304 630 q 133 518 184 630 q 106 422 115 477 q 100 340 100 382 q 106 258 100 297 q 133 162 115 203 q 304 50 184 50 q 474 162 423 50 q 501 258 492 203 q 507 340 507 297 q 501 422 507 382 q 474 518 492 477 q 304 630 423 630 m 513 0 l 507 81 l 507 122 l 486 92 q 434 38 463 59 l 431 36 q 304 0 376 0 q 182 33 235 0 l 177 35 l 174 38 q 51 340 51 121 q 174 642 51 559 q 179 646 174 642 l 184 648 q 304 680 237 680 q 425 647 372 680 l 433 642 q 486 588 463 621 l 507 557 l 507 595 l 513 675 l 556 679 l 556 0 l 513 0 z "},"å":{"ha":607,"x_min":51,"x_max":556,"o":"m 304 743 q 284 751 292 743 q 276 770 276 760 q 284 790 276 782 q 304 798 292 798 q 323 790 315 798 q 331 770 331 782 q 323 751 331 760 q 304 743 315 743 m 365 770 q 347 814 365 796 q 304 832 329 832 q 260 814 278 832 q 242 770 242 796 q 260 727 242 745 q 304 709 278 709 q 347 727 329 709 q 365 770 365 745 m 304 630 q 133 518 184 630 q 106 422 115 477 q 100 340 100 382 q 106 258 100 297 q 133 162 115 203 q 304 50 184 50 q 474 162 423 50 q 501 258 492 203 q 507 340 507 297 q 501 422 507 382 q 474 518 492 477 q 304 630 423 630 m 513 0 l 507 81 l 507 122 l 486 92 q 434 38 463 59 l 431 36 q 304 0 376 0 q 182 33 235 0 l 177 35 l 174 38 q 51 340 51 121 q 174 642 51 559 q 179 646 174 642 l 184 648 q 304 680 237 680 q 425 647 372 680 l 433 642 q 486 588 463 621 l 507 557 l 507 595 l 513 675 l 556 679 l 556 0 l 513 0 z "},"æ":{"ha":1065,"x_min":51,"x_max":1015,"o":"m 559 365 l 559 376 q 571 456 562 419 q 602 539 582 504 q 762 630 654 630 q 921 539 869 630 q 953 456 941 504 q 964 376 961 419 l 964 365 l 559 365 m 304 52 q 133 164 184 52 q 106 260 115 205 q 100 342 100 300 q 106 425 100 385 q 133 520 115 479 q 304 633 184 633 q 474 520 423 633 q 501 425 492 479 q 507 342 507 385 q 501 260 507 299 q 474 164 492 205 q 304 52 423 52 m 1015 340 q 947 589 1015 497 q 762 680 879 680 q 556 555 624 680 l 556 681 l 513 677 l 507 597 l 507 560 l 486 590 q 433 644 463 623 l 425 650 q 304 682 372 682 q 184 651 237 682 l 179 648 q 174 644 174 645 q 51 342 51 561 q 174 40 51 123 l 177 38 l 182 35 q 304 2 235 2 q 431 38 376 2 l 434 40 q 486 94 463 61 l 507 124 l 507 83 l 513 2 l 556 2 l 556 124 q 762 0 624 0 q 918 58 854 0 q 1003 222 981 116 l 954 226 q 884 95 933 140 q 762 50 835 50 q 602 141 654 50 q 571 224 582 176 q 559 303 562 260 l 559 315 l 1015 315 l 1015 340 z "},"ç":{"ha":583,"x_min":51,"x_max":532,"o":"m 378 -104 q 354 -167 378 -143 q 292 -190 330 -190 q 231 -169 254 -190 q 205 -112 208 -148 l 250 -109 q 292 -144 252 -144 q 332 -104 332 -144 q 292 -64 332 -64 l 269 -41 l 269 16 l 314 16 l 314 -21 q 378 -104 378 -35 m 304 -2 q 119 90 186 -2 q 51 338 51 180 q 119 587 51 495 q 304 678 186 678 q 444 632 385 678 q 532 503 503 587 l 481 499 q 304 629 431 629 q 133 516 184 629 q 106 420 115 475 q 100 338 100 380 q 106 256 100 295 q 133 160 115 201 q 304 47 184 47 q 422 90 374 47 q 481 177 460 122 l 532 173 q 444 43 503 90 q 304 -2 385 -2 z "},"è":{"ha":607,"x_min":51,"x_max":556,"o":"m 291 869 l 203 862 l 283 751 l 334 755 l 291 869 m 304 630 q 144 539 197 630 q 113 456 124 504 q 102 376 104 419 l 101 365 l 507 365 l 506 376 q 494 456 503 419 q 463 539 484 504 q 304 630 411 630 m 304 0 q 119 92 186 0 q 51 340 51 182 q 119 589 51 497 q 304 680 186 680 q 488 589 420 680 q 556 340 556 497 l 556 315 l 101 315 l 102 303 q 113 224 104 260 q 144 141 124 176 q 304 50 197 50 q 426 95 376 50 q 495 226 475 140 l 545 222 q 460 58 522 116 q 304 0 397 0 z "},"é":{"ha":607,"x_min":51,"x_max":556,"o":"m 325 869 l 282 755 l 332 751 l 412 862 l 325 869 m 304 630 q 144 539 197 630 q 113 456 124 504 q 102 376 104 419 l 101 365 l 507 365 l 506 376 q 494 456 503 419 q 463 539 484 504 q 304 630 411 630 m 304 0 q 119 92 186 0 q 51 340 51 182 q 119 589 51 497 q 304 680 186 680 q 488 589 420 680 q 556 340 556 497 l 556 315 l 101 315 l 102 303 q 113 224 104 260 q 144 141 124 176 q 304 50 197 50 q 426 95 376 50 q 495 226 475 140 l 545 222 q 460 58 522 116 q 304 0 397 0 z "},"ê":{"ha":607,"x_min":51,"x_max":556,"o":"m 306 882 l 306 882 l 305 882 l 216 802 l 231 761 l 306 821 l 380 761 l 396 802 l 306 882 m 304 630 q 144 539 197 630 q 113 456 124 504 q 102 376 104 419 l 101 365 l 507 365 l 506 376 q 494 456 503 419 q 463 539 484 504 q 304 630 411 630 m 304 0 q 119 92 186 0 q 51 340 51 182 q 119 589 51 497 q 304 680 186 680 q 488 589 420 680 q 556 340 556 497 l 556 315 l 101 315 l 102 303 q 113 224 104 260 q 144 141 124 176 q 304 50 197 50 q 426 95 376 50 q 495 226 475 140 l 545 222 q 460 58 522 116 q 304 0 397 0 z "},"ë":{"ha":607,"x_min":51,"x_max":556,"o":"m 363 833 q 341 823 351 833 q 332 801 332 814 q 341 779 332 787 q 363 769 351 769 q 386 779 376 769 q 395 801 395 787 q 386 823 395 814 q 363 833 376 833 m 243 833 q 221 823 231 833 q 212 801 212 814 q 221 779 212 787 q 243 769 231 769 q 266 779 257 769 q 275 801 275 787 q 266 823 275 814 q 243 833 257 833 m 304 630 q 144 539 197 630 q 113 456 124 504 q 102 376 104 419 l 101 365 l 507 365 l 506 376 q 494 456 503 419 q 463 539 484 504 q 304 630 411 630 m 304 0 q 119 92 186 0 q 51 340 51 182 q 119 589 51 497 q 304 680 186 680 q 488 589 420 680 q 556 340 556 497 l 556 315 l 101 315 l 102 303 q 113 224 104 260 q 144 141 124 176 q 304 50 197 50 q 426 95 376 50 q 495 226 475 140 l 545 222 q 460 58 522 116 q 304 0 397 0 z "},"ì":{"ha":231,"x_min":51,"x_max":180,"o":"m 126 0 l 176 0 l 176 674 l 126 677 l 126 0 m 138 869 l 51 863 l 131 752 l 180 756 l 180 756 l 138 869 z "},"í":{"ha":235,"x_min":51,"x_max":184,"o":"m 51 0 l 100 0 l 100 674 l 51 677 l 51 0 m 96 869 l 54 756 l 104 752 l 184 863 l 96 869 z "},"î":{"ha":282,"x_min":51,"x_max":231,"o":"m 115 0 l 163 0 l 163 674 l 115 677 l 115 0 m 141 882 l 141 882 l 141 882 l 51 803 l 67 762 l 141 821 l 215 762 l 231 803 l 141 882 l 141 882 z "},"ï":{"ha":285,"x_min":51,"x_max":234,"o":"m 118 0 l 168 0 l 168 674 l 118 677 l 118 0 m 202 833 q 180 823 189 833 q 171 801 171 814 q 180 779 171 788 q 202 769 189 769 q 225 779 216 769 q 234 801 234 788 q 225 823 234 814 q 202 833 216 833 m 83 833 q 60 823 69 833 q 51 801 51 814 q 60 779 51 788 q 83 769 69 769 q 105 779 96 769 q 115 801 115 788 q 105 823 115 814 q 83 833 96 833 z "},"ð":{"ha":589,"x_min":51,"x_max":538,"o":"m 424 251 q 406 184 418 212 q 294 110 372 110 q 184 184 218 110 q 165 251 171 213 q 161 316 161 281 q 165 380 161 351 q 184 448 171 419 q 294 522 218 522 q 406 448 372 522 q 424 380 418 419 q 429 316 429 351 q 424 251 429 281 m 418 798 q 79 979 295 971 l 55 980 l 63 870 l 82 869 q 235 823 170 865 l 175 770 l 195 720 l 281 789 q 328 734 306 766 q 389 613 365 684 q 294 632 346 632 q 117 547 182 632 q 51 316 51 462 q 117 85 51 170 q 294 0 182 0 q 473 85 408 0 q 538 316 538 170 l 538 338 q 418 798 538 628 z "},"ñ":{"ha":583,"x_min":51,"x_max":532,"o":"m 362 669 l 357 671 q 292 680 326 680 q 227 671 257 680 l 220 669 l 214 667 q 100 546 139 637 l 100 581 l 93 675 l 51 678 l 51 0 l 100 0 l 100 359 q 109 441 102 402 q 136 530 118 492 q 292 630 185 630 q 452 517 404 630 q 477 422 470 477 q 483 340 483 382 l 483 1 l 532 1 l 532 345 q 489 554 532 470 q 369 667 446 638 l 362 669 m 376 825 q 334 812 357 810 q 292 825 319 813 l 271 833 q 250 839 258 838 q 207 829 226 842 l 203 778 l 203 776 q 245 789 222 791 q 288 777 260 788 l 309 768 q 330 762 321 764 q 372 772 353 759 l 376 825 z "},"ò":{"ha":607,"x_min":51,"x_max":556,"o":"m 304 630 q 133 518 184 630 q 106 422 115 477 q 100 340 100 382 q 106 258 100 297 q 133 162 115 203 q 304 50 184 50 q 474 162 423 50 q 501 258 492 203 q 507 340 507 297 q 501 422 507 382 q 474 518 492 477 q 304 630 423 630 m 304 0 q 119 92 186 0 q 51 340 51 182 q 119 589 51 497 q 304 680 186 680 q 488 589 420 680 q 556 340 556 497 q 488 92 556 182 q 304 0 420 0 m 203 862 l 283 751 l 334 755 l 291 869 l 203 862 z "},"ó":{"ha":607,"x_min":51,"x_max":556,"o":"m 304 630 q 133 518 184 630 q 106 422 115 477 q 100 340 100 382 q 106 258 100 297 q 133 162 115 203 q 304 50 184 50 q 474 162 423 50 q 501 258 492 203 q 507 340 507 297 q 501 422 507 382 q 474 518 492 477 q 304 630 423 630 m 304 0 q 119 92 186 0 q 51 340 51 182 q 119 589 51 497 q 304 680 186 680 q 488 589 420 680 q 556 340 556 497 q 488 92 556 182 q 304 0 420 0 m 412 862 l 332 751 l 282 755 l 325 869 l 412 862 z "},"ô":{"ha":607,"x_min":51,"x_max":556,"o":"m 304 630 q 133 518 184 630 q 106 422 115 477 q 100 340 100 382 q 106 258 100 297 q 133 162 115 203 q 304 50 184 50 q 474 162 423 50 q 501 258 492 203 q 507 340 507 297 q 501 422 507 382 q 474 518 492 477 q 304 630 423 630 m 304 0 q 119 92 186 0 q 51 340 51 182 q 119 589 51 497 q 304 680 186 680 q 488 589 420 680 q 556 340 556 497 q 488 92 556 182 q 304 0 420 0 m 396 802 l 306 882 l 306 882 l 305 882 l 216 802 l 231 761 l 306 821 l 380 761 l 396 802 z "},"õ":{"ha":607,"x_min":51,"x_max":556,"o":"m 304 630 q 133 518 184 630 q 106 422 115 477 q 100 340 100 382 q 106 258 100 297 q 133 162 115 203 q 304 50 184 50 q 474 162 423 50 q 501 258 492 203 q 507 340 507 297 q 501 422 507 382 q 474 518 492 477 q 304 630 423 630 m 304 0 q 119 92 186 0 q 51 340 51 182 q 119 589 51 497 q 304 680 186 680 q 488 589 420 680 q 556 340 556 497 q 488 92 556 182 q 304 0 420 0 m 391 825 q 348 812 372 810 q 306 825 334 813 l 284 833 q 263 839 273 838 q 220 829 239 842 l 216 778 l 216 776 q 259 789 235 791 q 302 777 274 789 l 323 768 q 344 763 334 764 q 387 772 368 759 l 391 825 z "},"ö":{"ha":607,"x_min":51,"x_max":556,"o":"m 304 630 q 133 518 184 630 q 106 422 115 477 q 100 340 100 382 q 106 258 100 297 q 133 162 115 203 q 304 50 184 50 q 474 162 423 50 q 501 258 492 203 q 507 340 507 297 q 501 422 507 382 q 474 518 492 477 q 304 630 423 630 m 304 0 q 119 92 186 0 q 51 340 51 182 q 119 589 51 497 q 304 680 186 680 q 488 589 420 680 q 556 340 556 497 q 488 92 556 182 q 304 0 420 0 m 363 833 q 341 823 351 833 q 332 801 332 814 q 341 779 332 787 q 363 769 351 769 q 386 779 376 769 q 395 801 395 787 q 386 823 395 814 q 363 833 376 833 m 243 833 q 221 823 231 833 q 212 801 212 814 q 221 779 212 787 q 243 769 231 769 q 266 779 257 769 q 275 801 275 787 q 266 823 275 814 q 243 833 257 833 z "},"÷":{"ha":357,"x_min":51,"x_max":306,"o":"m 51 517 l 51 444 l 306 464 l 306 537 l 51 517 m 178 663 q 146 649 159 663 q 133 617 133 635 q 146 585 133 598 q 178 572 159 572 q 210 585 197 572 q 224 617 224 598 q 210 649 224 635 q 178 663 197 663 m 178 409 q 146 396 159 409 q 133 363 133 382 q 146 332 133 345 q 178 318 159 318 q 210 332 197 318 q 224 363 224 345 q 210 396 224 382 q 178 409 197 409 z "},"ø":{"ha":607,"x_min":51,"x_max":556,"o":"m 304 630 q 133 517 184 630 q 106 422 115 476 q 100 340 100 382 q 106 258 100 297 q 133 162 115 203 q 304 50 184 50 q 474 162 423 50 q 501 258 492 203 q 507 340 507 297 q 501 422 507 382 q 474 517 492 476 q 304 630 423 630 m 304 0 q 119 91 186 0 q 51 340 51 182 q 119 588 51 497 q 304 680 186 680 q 488 588 420 680 q 556 340 556 497 q 488 91 556 182 q 304 0 420 0 m 219 -85 l 349 764 l 397 760 l 269 -85 l 219 -85 z "},"ù":{"ha":583,"x_min":51,"x_max":532,"o":"m 292 0 q 227 9 258 0 l 221 11 l 215 13 q 94 125 138 41 q 51 335 52 210 l 51 679 l 100 679 l 100 340 q 106 258 100 297 q 132 162 114 203 q 292 50 179 50 q 429 121 379 50 q 483 321 479 192 l 483 680 l 532 680 l 532 0 l 491 0 l 481 123 l 463 94 q 369 13 427 35 l 363 11 l 357 9 q 292 0 326 0 m 192 862 l 272 751 l 321 755 l 279 869 l 192 862 z "},"ú":{"ha":583,"x_min":51,"x_max":532,"o":"m 292 0 q 227 9 258 0 l 221 11 l 215 13 q 94 125 138 41 q 51 335 52 210 l 51 679 l 100 679 l 100 340 q 106 258 100 297 q 132 162 114 203 q 292 50 179 50 q 429 121 379 50 q 483 321 479 192 l 483 680 l 532 680 l 532 0 l 491 0 l 481 123 l 463 94 q 369 13 427 35 l 363 11 l 357 9 q 292 0 326 0 m 400 862 l 320 751 l 271 755 l 313 869 l 400 862 z "},"û":{"ha":583,"x_min":51,"x_max":532,"o":"m 292 0 q 227 9 258 0 l 221 11 l 215 13 q 94 125 138 41 q 51 335 52 210 l 51 679 l 100 679 l 100 340 q 106 258 100 297 q 132 162 114 203 q 292 50 179 50 q 429 121 379 50 q 483 321 479 192 l 483 680 l 532 680 l 532 0 l 491 0 l 481 123 l 463 94 q 369 13 427 35 l 363 11 l 357 9 q 292 0 326 0 m 384 802 l 294 882 l 294 882 l 294 882 l 203 802 l 220 761 l 294 821 l 368 761 l 384 802 z "},"ü":{"ha":583,"x_min":51,"x_max":532,"o":"m 292 0 q 227 9 258 0 l 221 11 l 215 13 q 94 125 138 41 q 51 335 52 210 l 51 679 l 100 679 l 100 340 q 106 258 100 297 q 132 162 114 203 q 292 50 179 50 q 429 121 379 50 q 483 321 479 192 l 483 680 l 532 680 l 532 0 l 491 0 l 481 123 l 463 94 q 369 13 427 35 l 363 11 l 357 9 q 292 0 326 0 m 330 825 q 352 835 339 835 q 374 825 365 835 q 384 803 384 817 q 374 781 384 790 q 352 771 365 771 q 330 781 339 771 q 320 803 320 790 q 330 825 320 816 m 210 825 q 232 835 219 835 q 254 825 245 835 q 264 803 264 816 q 254 781 264 790 q 232 771 245 771 q 210 781 219 771 q 200 803 200 790 q 210 825 200 816 z "},"ý":{"ha":607,"x_min":51,"x_max":556,"o":"m 304 -356 q 156 -304 218 -356 q 68 -159 95 -253 l 121 -163 q 304 -307 168 -307 q 473 -195 422 -307 q 500 -101 492 -155 q 507 -20 507 -62 l 507 122 l 486 92 q 434 38 464 59 l 431 36 q 304 0 376 0 q 182 33 235 0 l 177 35 l 174 38 q 51 340 51 121 l 51 673 l 100 677 l 100 340 q 106 258 100 297 q 133 161 115 203 q 304 50 184 50 q 474 161 423 50 q 501 258 492 203 q 507 340 507 297 l 507 674 l 556 678 l 556 -20 q 488 -266 555 -175 q 304 -356 420 -356 m 410 863 l 330 753 l 280 757 l 323 870 l 410 863 z "},"þ":{"ha":607,"x_min":51,"x_max":556,"o":"m 304 627 q 134 515 184 627 q 106 420 115 475 q 100 338 100 381 l 100 336 q 106 254 100 293 q 134 159 115 199 q 304 47 184 47 q 474 159 423 47 q 501 255 492 201 q 507 337 507 294 q 501 419 507 380 q 474 515 492 474 q 304 627 423 627 m 51 830 l 94 833 l 100 749 l 100 555 l 121 585 q 174 639 144 618 l 176 641 q 304 677 231 677 q 425 644 372 677 l 430 642 l 434 639 q 556 337 556 555 q 434 35 556 119 q 429 32 433 35 l 423 28 q 304 -3 371 -3 q 182 30 235 -3 l 174 35 q 121 89 144 56 l 100 119 l 100 -328 l 51 -332 l 51 830 z "},"ÿ":{"ha":607,"x_min":51,"x_max":556,"o":"m 304 -356 q 156 -304 218 -356 q 68 -159 95 -253 l 121 -163 q 304 -307 168 -307 q 473 -195 422 -307 q 500 -101 492 -155 q 507 -20 507 -62 l 507 122 l 486 92 q 434 38 464 59 l 431 36 q 304 0 376 0 q 182 33 235 0 l 177 35 l 174 38 q 51 340 51 121 l 51 673 l 100 677 l 100 340 q 106 258 100 297 q 133 161 115 203 q 304 50 184 50 q 474 161 423 50 q 501 258 492 203 q 507 340 507 297 l 507 674 l 556 678 l 556 -20 q 488 -266 555 -175 q 304 -356 420 -356 m 339 826 q 361 836 349 836 q 384 826 374 836 q 393 804 393 817 q 384 781 393 791 q 361 772 374 772 q 339 781 349 772 q 330 804 330 791 q 339 826 330 817 m 219 826 q 241 836 229 836 q 264 826 255 836 q 273 804 273 817 q 264 781 273 791 q 241 772 255 772 q 219 781 229 772 q 210 804 210 791 q 219 826 210 817 z "},"ı":{"ha":410,"x_min":51,"x_max":359,"o":"m 260 151 q 328 34 260 34 l 359 34 l 359 0 l 60 0 l 60 34 l 91 34 q 159 151 159 34 l 159 444 q 83 496 159 496 l 51 496 l 51 526 q 228 650 201 573 l 260 650 l 260 151 z "},"ˆ":{"ha":496,"x_min":51,"x_max":446,"o":"m 51 732 l 208 972 l 288 972 l 446 732 l 406 732 l 248 878 l 90 732 l 51 732 z "},"ˇ":{"ha":496,"x_min":51,"x_max":446,"o":"m 51 972 l 90 972 l 248 827 l 406 972 l 446 972 l 288 731 l 208 731 l 51 972 z "},"ˉ":{"ha":452,"x_min":51,"x_max":401,"o":"m 51 810 l 51 895 l 401 895 l 401 810 l 51 810 z "},"˘":{"ha":498,"x_min":51,"x_max":447,"o":"m 51 915 l 85 915 q 136 842 97 865 q 250 819 176 819 q 362 842 323 819 q 412 915 401 865 l 447 915 q 383 778 433 825 q 250 732 333 732 q 116 779 167 732 q 51 915 65 825 z "},"˙":{"ha":229,"x_min":51,"x_max":178,"o":"m 114 968 q 159 949 140 968 q 178 904 178 930 q 159 859 178 878 q 114 841 140 841 q 69 859 88 841 q 51 904 51 878 q 69 949 51 930 q 114 968 88 968 z "},"˚":{"ha":342,"x_min":51,"x_max":292,"o":"m 102 852 q 122 804 102 824 q 170 785 142 785 q 218 804 199 785 q 238 852 238 824 q 218 900 238 880 q 170 920 198 920 q 122 900 142 920 q 102 852 102 880 m 51 852 q 85 938 51 903 q 170 972 120 972 q 257 938 222 972 q 292 852 292 903 q 257 767 292 802 q 170 732 222 732 q 85 767 120 732 q 51 852 51 802 z "},"˛":{"ha":351,"x_min":51,"x_max":300,"o":"m 235 0 q 160 -81 186 -42 q 133 -157 133 -120 q 151 -208 133 -189 q 201 -227 170 -227 q 248 -217 228 -227 q 281 -184 268 -206 l 300 -195 q 239 -260 276 -237 q 158 -283 202 -283 q 81 -259 111 -283 q 51 -198 51 -235 q 92 -92 51 -146 q 201 0 133 -37 l 235 0 z "},"˜":{"ha":357,"x_min":51,"x_max":306,"o":"m 51 923 q 115 916 79 911 q 146 923 130 918 l 178 933 q 306 943 263 960 l 306 870 q 178 860 263 887 q 115 843 136 846 q 51 850 79 838 l 51 923 z "},"˝":{"ha":330,"x_min":51,"x_max":279,"o":"m 51 769 l 124 769 l 144 1024 l 71 1024 l 51 769 m 279 1024 l 205 1024 l 184 769 l 258 769 l 279 1024 z "},"–":{"ha":357,"x_min":51,"x_max":306,"o":"m 51 572 l 51 499 l 306 520 l 306 593 l 51 572 z "},"—":{"ha":546,"x_min":51,"x_max":495,"o":"m 51 572 l 51 499 l 495 520 l 495 593 l 51 572 z "},"‘":{"ha":195,"x_min":51,"x_max":144,"o":"m 51 769 l 124 769 l 144 1024 l 71 1024 l 51 769 z "},"’":{"ha":195,"x_min":51,"x_max":144,"o":"m 124 1024 l 51 1024 l 71 769 l 144 769 l 124 1024 z "},"‚":{"ha":222,"x_min":51,"x_max":171,"o":"m 62 71 l 51 -68 l 160 -68 l 171 71 l 62 71 z "},"“":{"ha":330,"x_min":51,"x_max":279,"o":"m 51 769 l 124 769 l 144 1024 l 71 1024 l 51 769 m 279 1024 l 205 1024 l 184 769 l 258 769 l 279 1024 z "},"”":{"ha":330,"x_min":51,"x_max":279,"o":"m 258 1024 l 184 1024 l 205 769 l 279 769 l 258 1024 m 71 769 l 144 769 l 124 1024 l 51 1024 l 71 769 z "},"„":{"ha":330,"x_min":51,"x_max":279,"o":"m 51 769 l 124 769 l 144 1024 l 71 1024 l 51 769 m 279 1024 l 205 1024 l 184 769 l 258 769 l 279 1024 z "},"†":{"ha":694,"x_min":51,"x_max":643,"o":"m 332 693 q 296 814 327 759 q 257 901 257 882 q 281 955 257 935 q 347 975 306 975 q 411 956 385 975 q 436 907 436 937 q 399 814 436 886 q 361 693 368 757 q 481 730 427 699 q 569 768 550 768 q 623 744 602 768 q 643 679 643 720 q 624 615 643 640 q 575 589 606 589 q 483 627 553 589 q 361 665 425 658 q 436 477 367 546 q 360 -183 364 165 l 334 -183 q 257 477 330 165 q 332 665 326 546 q 212 628 267 659 q 124 589 143 589 q 71 614 91 589 q 51 679 51 638 q 70 743 51 718 q 118 768 88 768 q 211 730 140 768 q 332 693 269 699 z "},"‡":{"ha":694,"x_min":51,"x_max":643,"o":"m 361 126 q 483 165 425 134 q 575 202 553 202 q 624 177 606 202 q 643 113 643 151 q 623 47 643 72 q 569 23 602 23 q 481 62 550 23 q 361 98 427 93 q 399 -23 368 35 q 436 -116 436 -94 q 411 -164 436 -146 q 347 -183 385 -183 q 281 -163 306 -183 q 257 -110 257 -143 q 296 -22 257 -91 q 332 98 327 33 q 211 61 269 92 q 118 23 140 23 q 70 48 88 23 q 51 113 51 74 q 71 178 51 153 q 124 202 91 202 q 212 163 143 202 q 332 126 267 133 q 257 396 326 279 q 332 665 326 512 q 212 628 267 659 q 124 589 143 589 q 71 614 91 589 q 51 679 51 638 q 70 743 51 718 q 118 768 88 768 q 211 730 140 768 q 332 693 269 699 q 296 814 327 759 q 257 901 257 882 q 281 955 257 935 q 347 975 306 975 q 411 956 385 975 q 436 907 436 937 q 399 814 436 886 q 361 693 368 757 q 481 730 427 699 q 569 768 550 768 q 623 744 602 768 q 643 679 643 720 q 624 615 643 640 q 575 589 606 589 q 483 627 553 589 q 361 665 425 658 q 436 396 367 512 q 361 126 367 279 z "},"•":{"ha":503,"x_min":51,"x_max":452,"o":"m 51 487 q 110 629 51 570 q 252 687 169 687 q 394 628 335 687 q 452 487 452 570 q 393 345 452 404 q 251 286 334 286 q 109 345 168 286 q 51 487 51 404 z "},"…":{"ha":582,"x_min":51,"x_max":531,"o":"m 87 -7 q 62 4 73 -7 q 51 30 51 15 q 62 56 51 45 q 87 66 73 66 q 113 56 102 66 q 124 30 124 45 q 113 4 124 15 q 87 -7 102 -7 m 291 -7 q 265 4 276 -7 q 254 30 254 15 q 265 56 254 45 q 291 66 276 66 q 317 56 306 66 q 328 30 328 45 q 317 4 328 15 q 291 -7 306 -7 m 87 -7 q 62 4 73 -7 q 51 30 51 15 q 62 56 51 45 q 87 66 73 66 q 113 56 102 66 q 124 30 124 45 q 113 4 124 15 q 87 -7 102 -7 m 494 -7 q 469 4 479 -7 q 458 30 458 15 q 469 56 458 45 q 494 66 479 66 q 520 56 509 66 q 531 30 531 45 q 520 4 531 15 q 494 -7 509 -7 z "},"‹":{"ha":322,"x_min":51,"x_max":271,"o":"m 256 588 l 52 530 l 51 457 l 271 393 l 266 467 l 178 493 l 262 517 l 256 588 z "},"›":{"ha":322,"x_min":51,"x_max":271,"o":"m 60 517 l 144 493 l 56 467 l 51 393 l 271 457 l 271 530 l 65 588 l 60 517 z "},"⁄":{"ha":414,"x_min":51,"x_max":363,"o":"m 294 981 l 51 0 l 121 0 l 363 975 l 296 981 l 294 981 z "},"₣":{"ha":562,"x_min":51,"x_max":511,"o":"m 51 811 l 51 0 l 125 0 l 125 371 l 475 371 l 481 446 l 125 446 l 125 736 l 505 736 l 511 811 l 51 811 z "},"₤":{"ha":686,"x_min":51,"x_max":635,"o":"m 410 766 q 520 718 480 766 q 562 583 559 671 l 635 578 q 574 769 634 699 q 410 840 513 840 q 268 791 326 840 q 192 656 210 742 l 51 45 l 87 0 l 604 0 l 610 73 l 133 73 l 177 266 l 418 285 l 418 358 l 194 340 l 208 402 l 418 419 l 418 492 l 226 477 l 263 641 q 410 766 290 766 z "},"₧":{"ha":1375,"x_min":0,"x_max":0,"o":""},"€":{"ha":707,"x_min":51,"x_max":656,"o":"m 366 769 q 511 716 453 769 q 581 604 555 675 l 656 610 q 547 783 621 722 q 366 843 472 843 q 136 730 220 843 q 51 421 51 616 q 136 113 51 227 q 366 0 220 0 q 547 60 472 0 q 656 233 622 120 l 581 239 q 511 126 555 168 q 366 73 453 73 q 215 132 275 73 q 135 299 156 190 l 366 317 l 366 391 l 126 372 q 124 421 124 395 l 125 432 l 366 451 l 366 524 l 129 505 l 129 505 q 205 701 144 633 q 366 769 267 769 z "},"№":{"ha":1000,"x_min":51,"x_max":949,"o":"m 639 59 l 639 0 l 843 16 l 843 76 l 639 59 m 741 218 q 627 296 661 218 q 609 363 614 326 q 605 421 605 391 q 609 479 605 452 q 627 547 614 517 q 741 625 661 625 q 855 547 821 625 q 873 479 867 517 q 877 421 877 452 q 873 363 877 391 q 855 296 867 326 q 741 218 821 218 m 741 698 q 589 623 645 698 q 533 421 533 549 q 589 219 533 294 q 741 145 645 145 q 893 219 837 145 q 949 421 949 294 q 893 623 949 549 q 741 698 837 698 m 309 543 l 304 545 q 250 553 278 553 q 195 545 221 553 l 191 543 l 185 541 q 120 492 147 526 l 115 547 l 51 553 l 51 0 l 123 0 l 123 290 q 128 348 123 321 q 146 410 134 384 q 250 480 179 480 q 356 401 324 480 q 373 334 368 372 q 377 276 377 306 l 377 1 l 448 1 l 448 276 q 413 448 448 378 q 314 541 378 517 l 309 543 z "},"™":{"ha":345,"x_min":51,"x_max":294,"o":"m 169 999 l 169 828 l 189 828 l 189 947 l 222 861 l 239 859 l 275 946 l 275 828 l 294 828 l 294 998 l 275 999 l 231 887 l 188 998 l 169 999 m 51 999 l 51 980 l 94 980 l 94 828 l 113 828 l 113 980 l 157 980 l 157 999 l 51 999 z "},"∂":{"ha":589,"x_min":51,"x_max":538,"o":"m 294 522 q 184 448 218 522 q 165 380 171 419 q 161 316 161 351 q 165 251 161 281 q 184 184 171 212 q 294 110 218 110 q 406 184 372 110 q 424 251 418 212 q 429 316 429 281 q 424 380 429 351 q 406 448 418 419 q 294 522 372 522 m 294 0 q 117 85 182 0 q 51 316 51 170 q 117 547 51 462 q 294 632 182 632 q 389 613 346 632 q 328 734 365 683 q 82 869 239 861 l 63 870 l 55 980 l 79 979 q 418 798 295 971 q 538 338 538 628 l 538 330 l 538 316 q 473 85 538 170 q 294 0 408 0 z "},"∆":{"ha":825,"x_min":51,"x_max":774,"o":"m 395 810 l 120 83 l 663 83 l 395 810 m 418 972 l 774 0 l 51 0 l 418 972 z "},"∏":{"ha":1064,"x_min":51,"x_max":1013,"o":"m 365 939 q 296 779 296 939 l 296 -90 q 365 -249 296 -249 l 431 -249 l 431 -283 l 51 -283 l 51 -249 l 116 -249 q 186 -90 186 -249 l 186 779 q 116 939 186 939 l 51 939 l 51 972 l 1013 972 l 1013 939 l 947 939 q 878 779 878 939 l 878 -90 q 947 -249 878 -249 l 1013 -249 l 1013 -283 l 633 -283 l 633 -249 l 699 -249 q 768 -90 768 -249 l 768 779 q 699 939 768 939 l 365 939 z "},"∑":{"ha":796,"x_min":51,"x_max":745,"o":"m 688 372 l 153 -248 l 584 -248 q 712 -125 672 -248 l 745 -125 l 675 -282 l 51 -282 l 51 -248 q 123 -212 93 -248 l 572 317 l 123 900 q 51 939 93 939 l 51 972 l 675 972 l 745 815 l 712 815 q 584 939 672 939 l 255 939 l 688 372 z "},"−":{"ha":357,"x_min":51,"x_max":306,"o":"m 51 572 l 51 499 l 306 520 l 306 593 l 51 572 z "},"√":{"ha":805,"x_min":51,"x_max":754,"o":"m 162 0 l 51 243 l 101 267 l 159 142 l 652 1139 l 754 1139 l 754 1098 l 705 1098 l 162 0 z "},"∞":{"ha":702,"x_min":51,"x_max":651,"o":"m 304 512 q 254 602 294 582 q 197 617 222 617 q 181 616 189 617 q 118 586 148 609 q 74 528 89 562 q 60 467 60 497 l 60 462 q 79 401 62 429 q 127 362 96 374 q 169 355 147 355 q 191 357 180 355 q 253 386 223 363 q 304 512 282 409 m 322 466 q 386 362 330 401 q 469 330 433 330 q 484 331 477 330 q 563 366 526 339 q 621 435 601 393 q 638 508 638 471 l 638 515 q 614 589 637 556 q 552 635 591 622 q 500 644 527 644 q 471 642 486 644 q 385 600 425 635 q 322 466 344 564 m 311 561 q 326 608 317 585 q 390 701 349 667 q 477 734 431 734 q 564 701 522 734 q 628 610 605 669 q 651 486 651 551 q 628 363 651 422 q 564 271 605 304 q 477 239 522 239 q 390 272 431 239 q 326 364 349 305 q 311 412 317 388 q 303 384 308 397 q 253 307 285 334 q 186 280 221 280 q 118 308 151 280 q 68 385 85 336 q 51 486 51 434 q 68 587 51 538 q 118 665 85 637 q 186 692 151 692 q 253 665 221 692 q 303 589 285 638 q 311 561 308 575 z "},"∫":{"ha":642,"x_min":51,"x_max":591,"o":"m 92 -191 q 51 -171 51 -191 l 51 -63 l 75 -63 q 99 -107 76 -92 q 142 -121 121 -121 l 142 -121 q 220 -12 198 -121 q 248 203 242 98 l 295 701 l 300 743 q 392 1034 319 904 q 551 1164 465 1164 q 591 1144 591 1164 l 591 1036 l 567 1036 q 543 1080 566 1065 q 500 1095 520 1095 q 422 989 452 1095 q 389 743 391 884 l 339 222 q 251 -62 326 66 q 92 -191 176 -191 z "},"≈":{"ha":357,"x_min":51,"x_max":306,"o":"m 51 376 q 115 370 79 365 q 178 387 136 373 q 306 397 263 414 l 306 470 q 178 460 263 488 l 146 450 q 115 444 129 446 q 51 450 79 438 l 51 376 m 51 511 q 115 504 79 499 q 178 521 136 507 q 306 531 263 548 l 306 604 q 178 594 263 621 l 146 584 q 115 577 129 579 q 51 584 79 572 l 51 511 z "},"≤":{"ha":281,"x_min":51,"x_max":231,"o":"m 51 439 l 51 366 l 231 380 l 231 454 l 51 439 m 219 625 l 52 578 l 51 521 l 231 469 l 227 524 l 142 549 l 223 572 l 219 625 z "},"≥":{"ha":281,"x_min":51,"x_max":231,"o":"m 51 454 l 51 380 l 231 366 l 231 439 l 51 454 m 58 572 l 139 549 l 55 524 l 51 469 l 231 521 l 230 578 l 62 625 l 58 572 z "},"":{"ha":589,"x_min":51,"x_max":538,"o":"m 267 209 l 267 565 l 294 565 q 435 614 386 565 q 484 757 484 664 q 435 899 484 850 q 294 949 386 949 q 158 903 207 949 q 106 769 109 856 l 51 773 q 121 943 56 880 q 294 1004 186 1004 q 473 938 408 1004 q 538 757 538 871 q 484 587 538 652 q 330 511 428 522 l 322 510 l 322 204 l 267 209 m 294 0 q 269 11 279 0 q 258 37 258 22 q 269 62 258 52 q 294 73 279 73 q 320 62 310 73 q 331 37 331 52 q 320 11 331 22 q 294 0 310 0 z "},"":{"ha":589,"x_min":51,"x_max":538,"o":"m 267 209 l 267 565 l 294 565 q 435 614 386 565 q 484 757 484 664 q 435 899 484 850 q 294 949 386 949 q 158 903 207 949 q 106 769 109 856 l 51 773 q 121 943 56 880 q 294 1004 186 1004 q 473 938 408 1004 q 538 757 538 871 q 484 587 538 652 q 330 511 428 522 l 322 510 l 322 204 l 267 209 m 294 0 q 269 11 279 0 q 258 37 258 22 q 269 62 258 52 q 294 73 279 73 q 320 62 310 73 q 331 37 331 52 q 320 11 331 22 q 294 0 310 0 z "}}}
